<svg width="500" height="373" viewBox="0 0 500 373" fill="none" xmlns="http://www.w3.org/2000/svg">
<rect width="500" height="372.5" fill="white"/>
<path d="M500 327.4H0V327.6H500V327.4Z" fill="#EBEBEB"/>
<path d="M449.9 343.5H416.8V343.7H449.9V343.5Z" fill="#EBEBEB"/>
<path d="M331.2 346.199H322.5V346.499H331.2V346.199Z" fill="#EBEBEB"/>
<path d="M415.8 334.199H396.6V334.499H415.8V334.199Z" fill="#EBEBEB"/>
<path d="M95.7 335.9H52.5V336.2H95.7V335.9Z" fill="#EBEBEB"/>
<path d="M110.9 335.9H104.6V336.2H110.9V335.9Z" fill="#EBEBEB"/>
<path d="M225.2 340.1H131.5V340.4H225.2V340.1Z" fill="#EBEBEB"/>
<path d="M237 282.8H43.9002C40.8002 282.8 38.2002 280.2 38.2002 277.1V5.7C38.2002 2.6 40.8002 0 43.9002 0H237C240.1 0 242.7 2.6 242.7 5.7V277.1C242.7 280.2 240.2 282.8 237 282.8ZM43.9002 0.200001C40.9002 0.200001 38.4002 2.6 38.4002 5.7V277.1C38.4002 280.1 40.8002 282.6 43.9002 282.6H237C240 282.6 242.5 280.2 242.5 277.1V5.7C242.5 2.7 240.1 0.200001 237 0.200001H43.9002Z" fill="#EBEBEB"/>
<path d="M453.3 282.8H260.2C257.1 282.8 254.5 280.2 254.5 277.1V5.7C254.5 2.6 257.1 0 260.2 0H453.3C456.4 0 459 2.6 459 5.7V277.1C459 280.2 456.5 282.8 453.3 282.8ZM260.2 0.200001C257.2 0.200001 254.7 2.6 254.7 5.7V277.1C254.7 280.1 257.1 282.6 260.2 282.6H453.3C456.3 282.6 458.8 280.2 458.8 277.1V5.7C458.8 2.7 456.4 0.200001 453.3 0.200001H260.2Z" fill="#EBEBEB"/>
<path d="M353.901 43.1004C353.901 40.4004 351.701 38.2004 349.001 38.2004C348.501 38.2004 348.001 38.3004 347.601 38.4004C347.701 37.9004 347.701 37.4004 347.701 36.9004C347.701 31.2004 343.101 26.5004 337.301 26.5004C336.601 26.5004 336.001 26.6004 335.401 26.7004C333.801 24.1004 330.901 22.4004 327.701 22.4004C322.701 22.4004 318.701 26.4004 318.601 31.3004C318.501 31.3004 318.501 31.3004 318.401 31.3004C313.801 31.3004 310.101 35.0004 310.101 39.6004C310.101 44.2004 313.801 47.9004 318.401 47.9004H349.001C351.801 47.9004 353.901 45.8004 353.901 43.1004Z" fill="#F0F0F0"/>
<path d="M336 50.5004V40.9004H328.2V50.5004H321.8L332.1 59.1004L342.3 50.5004H336Z" fill="#E0DFDF"/>
<path d="M200.7 57.5996C200.7 51.8996 196.1 47.1996 190.3 47.1996C189.3 47.1996 188.3 47.3996 187.3 47.5996C187.5 46.5996 187.5 45.4996 187.5 44.3996C187.5 32.2996 177.7 22.3996 165.5 22.3996C164.1 22.3996 162.8 22.4996 161.4 22.7996C158 17.2996 151.9 13.5996 145 13.5996C134.5 13.5996 125.9 22.0996 125.8 32.5996C125.7 32.5996 125.6 32.5996 125.5 32.5996C115.7 32.5996 107.8 40.4996 107.8 50.2996C107.8 60.0996 115.7 67.9996 125.5 67.9996H190.6C196.2 67.7996 200.7 63.1996 200.7 57.5996Z" fill="#F0F0F0"/>
<path d="M146 58.4V78.6H162.5V58.4H176L154.3 40L132.5 58.4H146Z" fill="#E0DFDF"/>
<path d="M209 108.1V80.9004H292.4V107.9" stroke="#E7E7E6" stroke-miterlimit="10"/>
<path d="M251.9 55.1992V108.099" stroke="#E7E7E6" stroke-miterlimit="10"/>
<path d="M266.1 44.9004H237.7C237 44.9004 236.5 45.4004 236.5 46.1004V63.0004C236.5 63.7004 237 64.2004 237.7 64.2004H266.1C266.8 64.2004 267.3 63.7004 267.3 63.0004V46.1004C267.3 45.4004 266.7 44.9004 266.1 44.9004Z" fill="#F0F0F0"/>
<path d="M265.801 63.3992H238.001C237.801 63.3992 237.601 63.1992 237.601 62.9992V47.5992C237.601 47.3992 237.801 47.1992 238.001 47.1992H265.801C266.001 47.1992 266.201 47.3992 266.201 47.5992V62.9992C266.201 63.1992 266.001 63.3992 265.801 63.3992Z" fill="#E0DFDF"/>
<path d="M223.201 105.699H194.801C194.101 105.699 193.601 106.199 193.601 106.899V123.799C193.601 124.499 194.101 124.999 194.801 124.999H223.201C223.901 124.999 224.401 124.499 224.401 123.799V106.899C224.301 106.199 223.801 105.699 223.201 105.699Z" fill="#F0F0F0"/>
<path d="M222.9 124.1H195.1C194.9 124.1 194.7 123.9 194.7 123.7V108.3C194.7 108.1 194.9 107.9 195.1 107.9H222.9C223.1 107.9 223.3 108.1 223.3 108.3V123.7C223.3 124 223.1 124.1 222.9 124.1Z" fill="#E0DFDF"/>
<path d="M266.1 105.699H237.7C237 105.699 236.5 106.199 236.5 106.899V123.799C236.5 124.499 237 124.999 237.7 124.999H266.1C266.8 124.999 267.3 124.499 267.3 123.799V106.899C267.3 106.199 266.7 105.699 266.1 105.699Z" fill="#F0F0F0"/>
<path d="M265.801 124.1H238.001C237.801 124.1 237.601 123.9 237.601 123.7V108.3C237.601 108.1 237.801 107.9 238.001 107.9H265.801C266.001 107.9 266.201 108.1 266.201 108.3V123.7C266.201 124 266.001 124.1 265.801 124.1Z" fill="#E0DFDF"/>
<path d="M306.6 105.699H278.2C277.5 105.699 277 106.199 277 106.899V123.799C277 124.499 277.5 124.999 278.2 124.999H306.6C307.3 124.999 307.8 124.499 307.8 123.799V106.899C307.8 106.199 307.3 105.699 306.6 105.699Z" fill="#F0F0F0"/>
<path d="M306.301 124.1H278.501C278.301 124.1 278.101 123.9 278.101 123.7V108.3C278.101 108.1 278.301 107.9 278.501 107.9H306.301C306.501 107.9 306.701 108.1 306.701 108.3V123.7C306.701 124 306.501 124.1 306.301 124.1Z" fill="#E0DFDF"/>
<path d="M251.3 72.6L243.6 80.3C243.3 80.6 243.3 81.1 243.6 81.4L251.3 89.1C251.6 89.4 252.1 89.4 252.4 89.1L260.1 81.4C260.4 81.1 260.4 80.6 260.1 80.3L252.4 72.6C252.1 72.3 251.6 72.3 251.3 72.6Z" fill="#E0DFDF"/>
<g opacity="0.8">
<g opacity="0.8">
<path opacity="0.8" d="M89.1002 80.6996H69.1002C68.6002 80.6996 68.2002 80.2996 68.2002 79.7996V68.4996C68.2002 67.9996 68.6002 67.5996 69.1002 67.5996H89.1002C89.6002 67.5996 90.0002 67.9996 90.0002 68.4996V79.7996C90.0002 80.2996 89.6002 80.6996 89.1002 80.6996Z" fill="#E0DFDF"/>
</g>
</g>
<path d="M73.8006 105.6H58.0006C57.5006 105.6 57.1006 105.2 57.1006 104.7V96.4996C57.1006 95.9996 57.5006 95.5996 58.0006 95.5996H73.8006C74.3006 95.5996 74.7006 95.9996 74.7006 96.4996V104.7C74.7006 105.2 74.3006 105.6 73.8006 105.6Z" fill="#E0DFDF"/>
<path d="M100.5 105.6H84.6998C84.1998 105.6 83.7998 105.2 83.7998 104.7V96.4996C83.7998 95.9996 84.1998 95.5996 84.6998 95.5996H100.5C101 95.5996 101.4 95.9996 101.4 96.4996V104.7C101.4 105.2 101 105.6 100.5 105.6Z" fill="#E0DFDF"/>
<path d="M84.1002 125.2H76.6002C76.1002 125.2 75.7002 124.8 75.7002 124.3V117.5C75.7002 117 76.1002 116.6 76.6002 116.6H84.1002C84.6002 116.6 85.0002 117 85.0002 117.5V124.3C85.0002 124.8 84.6002 125.2 84.1002 125.2Z" fill="#E0DFDF"/>
<path d="M95.8004 125.2H88.3004C87.8004 125.2 87.4004 124.8 87.4004 124.3V117.5C87.4004 117 87.8004 116.6 88.3004 116.6H95.8004C96.3004 116.6 96.7004 117 96.7004 117.5V124.3C96.7004 124.8 96.3004 125.2 95.8004 125.2Z" fill="#E0DFDF"/>
<path d="M107.6 125.2H100.1C99.6002 125.2 99.2002 124.8 99.2002 124.3V117.5C99.2002 117 99.6002 116.6 100.1 116.6H107.6C108.1 116.6 108.5 117 108.5 117.5V124.3C108.4 124.8 108 125.2 107.6 125.2Z" fill="#E0DFDF"/>
<path d="M57.0006 125.2H49.5006C49.0006 125.2 48.6006 124.8 48.6006 124.3V117.5C48.6006 117 49.0006 116.6 49.5006 116.6H57.0006C57.5006 116.6 57.9006 117 57.9006 117.5V124.3C57.8006 124.8 57.4006 125.2 57.0006 125.2Z" fill="#E0DFDF"/>
<path d="M69.6998 125.2H62.1998C61.6998 125.2 61.2998 124.8 61.2998 124.3V117.5C61.2998 117 61.6998 116.6 62.1998 116.6H69.6998C70.1998 116.6 70.5998 117 70.5998 117.5V124.3C70.5998 124.8 70.1998 125.2 69.6998 125.2Z" fill="#E0DFDF"/>
<path d="M91.6006 95.6992H92.6006V88.6992H79.6006V80.6992H78.6006V88.6992H65.6006V95.6992H66.6006V89.6992H91.6006V95.6992Z" fill="#E0DFDF"/>
<path d="M65.6006 111.699H52.6006V116.699H53.6006V112.699H65.6006V116.699H66.6006V105.699H65.6006V111.699Z" fill="#E0DFDF"/>
<path d="M92.6006 112.699V105.699H91.6006V112.699H79.6006V116.699H80.6006V113.699H91.6006V116.699H92.6006V113.699H103.601V116.699H104.601V112.699H92.6006Z" fill="#E0DFDF"/>
<path d="M381 70.8008V78.0008L384.7 78.3008C385.2 80.7008 386.2 82.9008 387.5 84.9008L385.1 87.8008L390.2 92.9008L393.1 90.5008C395.1 91.8008 397.3 92.8008 399.7 93.3008L400 97.0008H407.2L407.5 93.3008C409.9 92.8008 412.1 91.8008 414.1 90.5008L417 92.9008L422.1 87.8008L419.7 84.9008C421 82.9008 422 80.7008 422.5 78.3008L426.2 78.0008V70.8008L422.5 70.5008C422 68.1008 421 65.9008 419.7 63.9008L422.1 61.0008L417 55.9008L414.1 58.3008C412.1 57.0008 409.9 56.0008 407.5 55.5008L407.2 51.8008H400L399.7 55.5008C397.3 56.0008 395.1 57.0008 393.1 58.3008L390.2 55.9008L385.1 61.0008L387.5 63.9008C386.2 65.9008 385.2 68.1008 384.7 70.5008L381 70.8008ZM403.6 64.6008C409 64.6008 413.3 69.0008 413.3 74.3008C413.3 79.6008 408.9 84.0008 403.6 84.0008C398.2 84.0008 393.9 79.6008 393.9 74.3008C393.9 69.0008 398.2 64.6008 403.6 64.6008Z" fill="#F5F5F5"/>
<path d="M385.6 123.199C387.5 122.799 389.2 122.099 390.8 120.999L393 122.899L397 118.899L395.1 116.699C396.1 115.099 396.9 113.399 397.3 111.499L400.2 111.199V105.599L397.3 105.299C396.9 103.399 396.2 101.699 395.1 100.099L397 97.8992L393 93.8992L390.8 95.7992C389.2 94.7992 387.5 93.9992 385.6 93.5992L385.3 90.6992H379.7L379.4 93.5992C377.5 93.9992 375.8 94.6992 374.2 95.7992L372 93.8992L368 97.8992L369.9 100.099C368.9 101.699 368.1 103.399 367.7 105.299L364.8 105.599V111.199L367.7 111.499C368.1 113.399 368.8 115.099 369.9 116.699L368 118.899L372 122.899L374.2 120.999C375.8 121.999 377.5 122.799 379.4 123.199L379.7 126.099H385.3L385.6 123.199ZM374.9 108.399C374.9 104.199 378.3 100.799 382.5 100.799C386.7 100.799 390.1 104.199 390.1 108.399C390.1 112.599 386.7 115.999 382.5 115.999C378.3 115.999 374.9 112.599 374.9 108.399Z" fill="#F5F5F5"/>
<path d="M373.1 92.7004L375 94.3004L378.3 91.0004L376.7 89.1004C377.6 87.8004 378.2 86.3004 378.5 84.7004L380.9 84.5004V79.8004L378.5 79.6004C378.2 78.0004 377.5 76.5004 376.7 75.2004L378.3 73.3004L375 70.0004L373.1 71.6004C371.8 70.7004 370.3 70.1004 368.7 69.8004L368.5 67.4004H363.8L363.6 69.8004C362 70.1004 360.5 70.8004 359.2 71.6004L357.3 70.0004L354 73.3004L355.6 75.2004C354.7 76.5004 354.1 78.0004 353.8 79.6004L351.4 79.8004V84.5004L353.8 84.7004C354.1 86.3004 354.8 87.8004 355.6 89.1004L354 91.0004L357.3 94.3004L359.2 92.7004C360.5 93.6004 362 94.2004 363.6 94.5004L363.8 96.9004H368.5L368.7 94.5004C370.3 94.2004 371.8 93.6004 373.1 92.7004ZM359.7 82.1004C359.7 78.6004 362.6 75.7004 366.1 75.7004C369.6 75.7004 372.5 78.6004 372.5 82.1004C372.5 85.6004 369.6 88.5004 366.1 88.5004C362.6 88.5004 359.7 85.6004 359.7 82.1004Z" fill="#F5F5F5"/>
<path d="M439.3 269H372.2V312.7H439.3V269Z" fill="#F5F5F5"/>
<path d="M436.9 277.199H374.7V310.499H436.9V277.199Z" fill="#E0DFDF"/>
<path d="M425.8 282.199H379.8V283.599H425.8V282.199Z" fill="#F5F5F5"/>
<path d="M401.9 286.6H379.8V288H401.9V286.6Z" fill="#F5F5F5"/>
<path d="M407.6 291H379.8V292.4H407.6V291Z" fill="#F5F5F5"/>
<path d="M389.6 295.4H379.8V296.8H389.6V295.4Z" fill="#F5F5F5"/>
<path d="M386.2 299.699H379.8V301.099H386.2V299.699Z" fill="#F5F5F5"/>
<path d="M95.634 268.794L47.834 269.012L47.9686 298.512L95.7686 298.294L95.634 268.794Z" fill="#EBEBEB"/>
<path d="M66.1004 291.101C65.9004 291.101 65.7004 291.001 65.5004 290.901L56.8004 284.501C56.5004 284.301 56.4004 284.001 56.4004 283.701C56.4004 283.401 56.5004 283.101 56.8004 282.901L65.5004 276.501C65.9004 276.201 66.6004 276.301 66.9004 276.701C67.2004 277.101 67.1004 277.801 66.7004 278.101L59.1004 283.701L66.7004 289.301C67.1004 289.601 67.2004 290.301 66.9004 290.701C66.8004 290.901 66.5004 291.101 66.1004 291.101Z" fill="#FBFBFB"/>
<path d="M77.4998 290.999C77.1998 290.999 76.8998 290.899 76.6998 290.599C76.3998 290.199 76.4998 289.499 76.8998 289.199L84.4998 283.599L76.8998 277.999C76.4998 277.699 76.3998 276.999 76.6998 276.599C76.9998 276.199 77.6998 276.099 78.0998 276.399L86.7998 282.799C87.0998 282.999 87.1998 283.299 87.1998 283.599C87.1998 283.899 87.0998 284.199 86.7998 284.399L78.0998 290.799C77.8998 290.899 77.6998 290.999 77.4998 290.999Z" fill="#FBFBFB"/>
<path d="M69.4998 290.999C69.3998 290.999 69.2998 290.999 69.1998 290.899C68.6998 290.699 68.3998 290.099 68.5998 289.599L73.0998 276.799C73.2998 276.299 73.8998 275.999 74.3998 276.199C74.8998 276.399 75.1998 276.999 74.9998 277.499L70.4998 290.299C70.2998 290.799 69.8998 290.999 69.4998 290.999Z" fill="#FBFBFB"/>
<path d="M443.9 361.2C443.9 367.5 357.1 372.5 250 372.5C142.9 372.5 56.0996 367.4 56.0996 361.2C56.0996 354.9 142.9 349.9 250 349.9C357.1 349.9 443.9 355 443.9 361.2Z" fill="#F5F5F5"/>
<path d="M334.4 361.2H341.7L351.7 306H344.4L334.4 361.2Z" fill="#263238"/>
<g opacity="0.2">
<g opacity="0.2">
<path opacity="0.2" d="M334.4 361.2H341.7L351.7 306H344.4L334.4 361.2Z" fill="white"/>
</g>
</g>
<g opacity="0.2">
<g opacity="0.2">
<path opacity="0.2" d="M334.4 361.2H339.7L349.7 306H344.4L334.4 361.2Z" fill="white"/>
</g>
</g>
<path d="M313.701 322.401H343.101C344.001 322.401 344.701 321.701 344.701 320.801C344.701 319.901 344.001 319.201 343.101 319.201H313.701C312.801 319.201 312.101 319.901 312.101 320.801C312.101 321.701 312.801 322.401 313.701 322.401Z" fill="#263238"/>
<path d="M310.401 340.901H339.801C340.701 340.901 341.401 340.201 341.401 339.301C341.401 338.401 340.701 337.701 339.801 337.701H310.401C309.501 337.701 308.801 338.401 308.801 339.301C308.801 340.201 309.501 340.901 310.401 340.901Z" fill="#263238"/>
<path d="M304.4 361.2H311.7L321.7 306H314.4L304.4 361.2Z" fill="#263238"/>
<g opacity="0.2">
<g opacity="0.2">
<path opacity="0.2" d="M304.4 361.2H311.7L321.7 306H314.4L304.4 361.2Z" fill="white"/>
</g>
</g>
<g opacity="0.2">
<g opacity="0.2">
<path opacity="0.2" d="M304.4 361.2H309.7L319.7 306H314.4L304.4 361.2Z" fill="white"/>
</g>
</g>
<path d="M372.7 361.2H365.4L355.4 306H362.7L372.7 361.2Z" fill="#263238"/>
<g opacity="0.4">
<g opacity="0.4">
<path opacity="0.4" d="M372.7 361.2H365.4L355.4 306H362.7L372.7 361.2Z" fill="white"/>
</g>
</g>
<g opacity="0.2">
<g opacity="0.2">
<path opacity="0.2" d="M370.7 361.2H365.4L355.4 306H360.7L370.7 361.2Z" fill="white"/>
</g>
</g>
<path d="M359.801 322.401H330.401C329.501 322.401 328.801 321.701 328.801 320.801C328.801 319.901 329.501 319.201 330.401 319.201H359.801C360.701 319.201 361.401 319.901 361.401 320.801C361.401 321.701 360.701 322.401 359.801 322.401Z" fill="#263238"/>
<path d="M363.101 340.901H333.701C332.801 340.901 332.101 340.201 332.101 339.301C332.101 338.401 332.801 337.701 333.701 337.701H363.101C364.001 337.701 364.701 338.401 364.701 339.301C364.701 340.201 364.001 340.901 363.101 340.901Z" fill="#263238"/>
<g opacity="0.2">
<g opacity="0.2">
<path opacity="0.2" d="M359.801 322.401H330.401C329.501 322.401 328.801 321.701 328.801 320.801C328.801 319.901 329.501 319.201 330.401 319.201H359.801C360.701 319.201 361.401 319.901 361.401 320.801C361.401 321.701 360.701 322.401 359.801 322.401Z" fill="white"/>
</g>
</g>
<g opacity="0.2">
<g opacity="0.2">
<path opacity="0.2" d="M363.101 340.901H333.701C332.801 340.901 332.101 340.201 332.101 339.301C332.101 338.401 332.801 337.701 333.701 337.701H363.101C364.001 337.701 364.701 338.401 364.701 339.301C364.701 340.201 364.001 340.901 363.101 340.901Z" fill="white"/>
</g>
</g>
<path d="M342.7 361.2H335.4L325.4 306H332.7L342.7 361.2Z" fill="#263238"/>
<g opacity="0.4">
<g opacity="0.4">
<path opacity="0.4" d="M342.7 361.2H335.4L325.4 306H332.7L342.7 361.2Z" fill="white"/>
</g>
</g>
<g opacity="0.2">
<g opacity="0.2">
<path opacity="0.2" d="M340.7 361.2H335.4L325.4 306H330.7L340.7 361.2Z" fill="white"/>
</g>
</g>
<path d="M365.601 308.601H312.501C311.801 308.601 311.301 308.101 311.301 307.401V304.501C311.301 303.801 311.801 303.301 312.501 303.301H365.601C366.301 303.301 366.801 303.801 366.801 304.501V307.401C366.801 308.101 366.201 308.601 365.601 308.601Z" fill="#263238"/>
<g opacity="0.2">
<g opacity="0.2">
<path opacity="0.2" d="M332.701 308.601H312.501C311.801 308.601 311.301 308.101 311.301 307.401V304.501C311.301 303.801 311.801 303.301 312.501 303.301H332.701C333.401 303.301 333.901 303.801 333.901 304.501V307.401C333.901 308.101 333.301 308.601 332.701 308.601Z" fill="white"/>
</g>
</g>
<path d="M194.3 316.801H127.2V360.501H194.3V316.801Z" fill="#4C6EB2"/>
<g opacity="0.6">
<g opacity="0.6">
<path opacity="0.6" d="M194.3 316.801H127.2V360.501H194.3V316.801Z" fill="white"/>
</g>
</g>
<path d="M191.9 325H129.7V358.3H191.9V325Z" fill="#4C6EB2"/>
<path d="M180.7 330H134.7V331.4H180.7V330Z" fill="white"/>
<path d="M156.8 334.4H134.7V335.8H156.8V334.4Z" fill="white"/>
<path d="M162.5 338.801H134.7V340.201H162.5V338.801Z" fill="white"/>
<path d="M144.5 343.199H134.7V344.599H144.5V343.199Z" fill="white"/>
<path d="M141.1 347.6H134.7V349H141.1V347.6Z" fill="white"/>
<path d="M277.3 361.2H222.7L231.9 288.6H268.1L277.3 361.2Z" fill="#4C6EB2"/>
<g opacity="0.6">
<g opacity="0.6">
<path opacity="0.6" d="M277.3 361.2H222.7L229 311.5L231.9 288.6H268.1L272.4 322.4L277.3 361.2Z" fill="white"/>
</g>
</g>
<g opacity="0.1">
<g opacity="0.1">
<path opacity="0.1" d="M272.4 322.4L229 311.5L231.9 288.6H268.1L272.4 322.4Z" fill="#070809"/>
</g>
</g>
<path d="M378.9 109.4H373.4H126.6H121.1C117.5 109.4 114.5 112.4 114.5 116V290.5C114.5 294.1 117.5 297.1 121.1 297.1H126.6H373.4H378.9C382.5 297.1 385.5 294.1 385.5 290.5V116C385.5 112.3 382.5 109.4 378.9 109.4Z" fill="#4C6EB2"/>
<g opacity="0.7">
<g opacity="0.7">
<path opacity="0.7" d="M378.9 109.4H373.4H126.6H121.1C117.5 109.4 114.5 112.4 114.5 116V290.5C114.5 294.1 117.5 297.1 121.1 297.1H126.6H373.4H378.9C382.5 297.1 385.5 294.1 385.5 290.5V116C385.5 112.3 382.5 109.4 378.9 109.4Z" fill="white"/>
</g>
</g>
<path d="M376.8 115.801H123.2V284.101H376.8V115.801Z" fill="#4C6EB2"/>
<path d="M295.9 355.801H204.1C203.5 355.801 203.1 356.301 203.1 356.801V360.101C203.1 360.701 203.6 361.101 204.1 361.101H295.9C296.5 361.101 296.9 360.601 296.9 360.101V356.801C296.9 356.201 296.5 355.801 295.9 355.801Z" fill="#4C6EB2"/>
<g opacity="0.7">
<g opacity="0.7">
<path opacity="0.7" d="M295.9 355.801H204.1C203.5 355.801 203.1 356.301 203.1 356.801V360.101C203.1 360.701 203.6 361.101 204.1 361.101H295.9C296.5 361.101 296.9 360.601 296.9 360.101V356.801C296.9 356.201 296.5 355.801 295.9 355.801Z" fill="white"/>
</g>
</g>
<g opacity="0.2">
<g opacity="0.2">
<path opacity="0.2" d="M376.8 116H123.2V141.1H376.8V116Z" fill="#070809"/>
</g>
</g>
<g opacity="0.4">
<g opacity="0.4">
<path opacity="0.4" d="M231.9 141.4H123.2V284.1H231.9V141.4Z" fill="white"/>
</g>
</g>
<path d="M337.8 177.801V180.301H335.3" stroke="white" stroke-miterlimit="10"/>
<path d="M330 180.301H248.1" stroke="white" stroke-miterlimit="10" stroke-dasharray="5.28 5.28"/>
<path d="M245.4 180.301H242.9V177.801" stroke="white" stroke-miterlimit="10"/>
<path d="M242.9 173.301V130.201" stroke="white" stroke-miterlimit="10" stroke-dasharray="4.53 4.53"/>
<path d="M242.9 128V125.5H245.4" stroke="white" stroke-miterlimit="10"/>
<path d="M250.7 125.5H332.6" stroke="white" stroke-miterlimit="10" stroke-dasharray="5.28 5.28"/>
<path d="M335.3 125.5H337.8V128" stroke="white" stroke-miterlimit="10"/>
<path d="M337.8 132.5V175.5" stroke="white" stroke-miterlimit="10" stroke-dasharray="4.53 4.53"/>
<path d="M339.4 123.9H336.2V127.1H339.4V123.9Z" fill="#4C6EB2"/>
<path d="M339.4 123.9H336.2V127.1H339.4V123.9Z" stroke="white" stroke-miterlimit="10"/>
<path d="M339.4 178.701H336.2V181.901H339.4V178.701Z" fill="#4C6EB2"/>
<path d="M339.4 178.701H336.2V181.901H339.4V178.701Z" stroke="white" stroke-miterlimit="10"/>
<path d="M244.6 123.9H241.4V127.1H244.6V123.9Z" fill="#4C6EB2"/>
<path d="M244.6 123.9H241.4V127.1H244.6V123.9Z" stroke="white" stroke-miterlimit="10"/>
<path d="M244.6 178.701H241.4V181.901H244.6V178.701Z" fill="#4C6EB2"/>
<path d="M244.6 178.701H241.4V181.901H244.6V178.701Z" stroke="white" stroke-miterlimit="10"/>
<path d="M292 123.9H288.8V127.1H292V123.9Z" fill="#4C6EB2"/>
<path d="M292 123.9H288.8V127.1H292V123.9Z" stroke="white" stroke-miterlimit="10"/>
<path d="M292 178.701H288.8V181.901H292V178.701Z" fill="#4C6EB2"/>
<path d="M292 178.701H288.8V181.901H292V178.701Z" stroke="white" stroke-miterlimit="10"/>
<path d="M339.4 151.301H336.2V154.501H339.4V151.301Z" fill="#4C6EB2"/>
<path d="M339.4 151.301H336.2V154.501H339.4V151.301Z" stroke="white" stroke-miterlimit="10"/>
<path d="M244.6 151.301H241.4V154.501H244.6V151.301Z" fill="#4C6EB2"/>
<path d="M244.6 151.301H241.4V154.501H244.6V151.301Z" stroke="white" stroke-miterlimit="10"/>
<g opacity="0.7">
<g opacity="0.7">
<path opacity="0.7" d="M329.2 153.9H306C305 153.9 304.1 153.1 304.1 152V145.8C304.1 144.8 304.9 143.9 306 143.9H329.2C330.2 143.9 331.1 144.7 331.1 145.8V152C331 153 330.2 153.9 329.2 153.9Z" fill="white"/>
</g>
</g>
<g opacity="0.7">
<g opacity="0.7">
<path opacity="0.7" d="M289.2 153.9H266C265 153.9 264.1 153.1 264.1 152V145.8C264.1 144.8 264.9 143.9 266 143.9H289.2C290.2 143.9 291.1 144.7 291.1 145.8V152C291 153 290.2 153.9 289.2 153.9Z" fill="white"/>
</g>
</g>
<g opacity="0.7">
<g opacity="0.7">
<path opacity="0.7" d="M237.7 275.4H214.5C213.5 275.4 212.6 274.6 212.6 273.5V267.3C212.6 266.3 213.4 265.4 214.5 265.4H237.7C238.7 265.4 239.6 266.2 239.6 267.3V273.5C239.5 274.6 238.7 275.4 237.7 275.4Z" fill="white"/>
</g>
</g>
<path d="M360.1 124.9H368.5" stroke="white" stroke-width="1.5" stroke-miterlimit="10" stroke-linecap="round" stroke-linejoin="round"/>
<path d="M360.1 128.9H368.5" stroke="white" stroke-width="1.5" stroke-miterlimit="10" stroke-linecap="round" stroke-linejoin="round"/>
<path d="M360.1 132.9H368.5" stroke="white" stroke-width="1.5" stroke-miterlimit="10" stroke-linecap="round" stroke-linejoin="round"/>
<g opacity="0.5">
<g opacity="0.5">
<path opacity="0.5" d="M225.5 163.5H140.4V248.6H225.5V163.5Z" fill="white"/>
</g>
</g>
<path d="M176 170.5V243.8" stroke="#4C6EB2" stroke-miterlimit="10"/>
<path d="M212.7 243.8C192.4 243.8 176 227.4 176 207.1C176 186.8 192.4 170.4 212.7 170.4" stroke="#4C6EB2" stroke-miterlimit="10"/>
<path d="M214.3 168.9H211.1V172.1H214.3V168.9Z" fill="white"/>
<path d="M214.3 168.9H211.1V172.1H214.3V168.9Z" stroke="#4C6EB2" stroke-miterlimit="10"/>
<path d="M214.3 242.201H211.1V245.401H214.3V242.201Z" fill="white"/>
<path d="M214.3 242.201H211.1V245.401H214.3V242.201Z" stroke="#4C6EB2" stroke-miterlimit="10"/>
<path d="M177.6 205.5H174.4V208.7H177.6V205.5Z" fill="white"/>
<path d="M177.6 205.5H174.4V208.7H177.6V205.5Z" stroke="#4C6EB2" stroke-miterlimit="10"/>
<path d="M176.8 170.501C176.8 171.001 176.4 171.301 176 171.301C175.5 171.301 175.2 170.901 175.2 170.501C175.2 170.001 175.6 169.701 176 169.701C176.5 169.601 176.8 170.001 176.8 170.501Z" fill="white"/>
<path d="M176.8 170.501C176.8 171.001 176.4 171.301 176 171.301C175.5 171.301 175.2 170.901 175.2 170.501C175.2 170.001 175.6 169.701 176 169.701C176.5 169.601 176.8 170.001 176.8 170.501Z" stroke="#4C6EB2" stroke-miterlimit="10"/>
<path d="M176.8 243.8C176.8 244.3 176.4 244.6 176 244.6C175.5 244.6 175.2 244.2 175.2 243.8C175.2 243.3 175.6 243 176 243C176.5 243 176.8 243.4 176.8 243.8Z" fill="white"/>
<path d="M176.8 243.8C176.8 244.3 176.4 244.6 176 244.6C175.5 244.6 175.2 244.2 175.2 243.8C175.2 243.3 175.6 243 176 243C176.5 243 176.8 243.4 176.8 243.8Z" stroke="#4C6EB2" stroke-miterlimit="10"/>
<g opacity="0.7">
<g opacity="0.7">
<path opacity="0.7" d="M316.9 266.7H291.2C287.1 266.7 283.8 263.4 283.8 259.3C283.8 255.2 287.1 251.9 291.2 251.9H316.9C321 251.9 324.3 255.2 324.3 259.3C324.4 263.3 321 266.7 316.9 266.7Z" fill="white"/>
</g>
</g>
<g opacity="0.7">
<g opacity="0.7">
<path opacity="0.7" d="M339.6 203.2H260C259.1 203.2 258.4 202.5 258.4 201.6C258.4 200.7 259.1 200 260 200H339.5C340.4 200 341.1 200.7 341.1 201.6C341.2 202.5 340.4 203.2 339.6 203.2Z" fill="white"/>
</g>
</g>
<g opacity="0.7">
<g opacity="0.7">
<path opacity="0.7" d="M339.6 215.1H260C259.1 215.1 258.4 214.4 258.4 213.5C258.4 212.6 259.1 211.9 260 211.9H339.5C340.4 211.9 341.1 212.6 341.1 213.5C341.2 214.4 340.4 215.1 339.6 215.1Z" fill="white"/>
</g>
</g>
<g opacity="0.7">
<g opacity="0.7">
<path opacity="0.7" d="M339.6 227.001H290C289.1 227.001 288.4 226.301 288.4 225.401C288.4 224.501 289.1 223.801 290 223.801H339.5C340.4 223.801 341.1 224.501 341.1 225.401C341.2 226.201 340.4 227.001 339.6 227.001Z" fill="white"/>
</g>
</g>
<g opacity="0.4">
<g opacity="0.4">
<path opacity="0.4" d="M136.8 123H131.2V128.6H136.8V123Z" fill="#070809"/>
</g>
</g>
<g opacity="0.4">
<g opacity="0.4">
<path opacity="0.4" d="M146.3 128.6H143.6C142.8 128.6 142.2 128 142.2 127.2V124.5C142.2 123.7 142.8 123.1 143.6 123.1H146.3C147.1 123.1 147.7 123.7 147.7 124.5V127.2C147.8 127.9 147.1 128.6 146.3 128.6Z" fill="#070809"/>
</g>
</g>
<g opacity="0.4">
<g opacity="0.4">
<path opacity="0.4" d="M156.1 128.6H155.6C154.2 128.6 153 127.4 153 126V125.5C153 124.1 154.2 122.9 155.6 122.9H156.1C157.5 122.9 158.7 124.1 158.7 125.5V126C158.7 127.4 157.5 128.6 156.1 128.6Z" fill="#070809"/>
</g>
</g>
<g opacity="0.9">
<g opacity="0.9">
<path opacity="0.9" d="M148.5 261.5V259.3L147.4 259.2C147.2 258.5 147 257.8 146.6 257.2L147.3 256.3L145.8 254.8L144.9 255.5C144.3 255.1 143.6 254.8 142.9 254.7L142.8 253.6H140.6L140.5 254.7C139.8 254.9 139.1 255.1 138.5 255.5L137.6 254.8L136.1 256.3L136.8 257.2C136.4 257.8 136.1 258.5 136 259.2L134.9 259.3V261.5L136 261.6C136.2 262.3 136.4 263 136.8 263.6L136.1 264.5L137.6 266L138.5 265.3C139.1 265.7 139.8 266 140.5 266.1L140.6 267.2H142.8L142.9 266.1C143.6 265.9 144.3 265.7 144.9 265.3L145.8 266L147.3 264.5L146.6 263.6C147 263 147.3 262.3 147.4 261.6L148.5 261.5ZM141.6 263.4C140 263.4 138.6 262.1 138.6 260.4C138.6 258.8 139.9 257.4 141.6 257.4C143.2 257.4 144.6 258.7 144.6 260.4C144.5 262 143.2 263.4 141.6 263.4Z" fill="white"/>
</g>
</g>
<g opacity="0.6">
<g opacity="0.6">
<path opacity="0.6" d="M157.3 267.7V266L156.4 265.9C156.3 265.3 156.1 264.8 155.7 264.3L156.3 263.6L155.1 262.4L154.4 263C153.9 262.7 153.4 262.5 152.8 262.3L152.7 261.4H151L150.9 262.3C150.3 262.4 149.8 262.6 149.3 263L148.6 262.4L147.4 263.6L148 264.3C147.7 264.8 147.5 265.3 147.3 265.9L146.4 266V267.7L147.3 267.8C147.4 268.4 147.6 268.9 148 269.4L147.4 270.1L148.6 271.3L149.3 270.7C149.8 271 150.3 271.2 150.9 271.4L151 272.3H152.7L152.8 271.4C153.4 271.3 153.9 271.1 154.4 270.7L155.1 271.3L156.3 270.1L155.7 269.4C156 268.9 156.2 268.4 156.4 267.8L157.3 267.7ZM151.9 269.1C150.6 269.1 149.6 268.1 149.6 266.8C149.6 265.5 150.6 264.5 151.9 264.5C153.2 264.5 154.2 265.5 154.2 266.8C154.3 268.1 153.2 269.1 151.9 269.1Z" fill="white"/>
</g>
</g>
<g opacity="0.4">
<g opacity="0.4">
<path opacity="0.4" d="M148.5 272.6V271.2L147.8 271.1C147.7 270.6 147.5 270.2 147.2 269.8L147.7 269.2L146.7 268.2L146.1 268.7C145.7 268.4 145.3 268.2 144.8 268.1L144.7 267.4H143.3L143.2 268.1C142.7 268.2 142.3 268.4 141.9 268.7L141.3 268.2L140.3 269.2L140.8 269.8C140.5 270.2 140.3 270.6 140.2 271.1L139.5 271.2V272.6L140.2 272.7C140.3 273.2 140.5 273.6 140.8 274L140.3 274.6L141.3 275.6L141.9 275.1C142.3 275.4 142.7 275.6 143.2 275.7L143.3 276.4H144.7L144.8 275.7C145.3 275.6 145.7 275.4 146.1 275.1L146.7 275.6L147.7 274.6L147.2 274C147.5 273.6 147.7 273.2 147.8 272.7L148.5 272.6ZM143.9 273.8C142.8 273.8 141.9 272.9 141.9 271.9C141.9 270.8 142.8 269.9 143.9 269.9C145 269.9 145.9 270.8 145.9 271.9C145.9 272.9 145 273.8 143.9 273.8Z" fill="white"/>
</g>
</g>
<path d="M337.2 124.9L341.4 136.2L348.5 129.1L337.2 124.9Z" fill="#4C6EB2"/>
<path d="M343.938 130.198L342.383 131.754L345.918 135.289L347.474 133.734L343.938 130.198Z" fill="#4C6EB2"/>
<g opacity="0.4">
<g opacity="0.4">
<path opacity="0.4" d="M348.5 129.1L337.2 124.9L341.4 136.2L344.2 133.5L345.9 135.2L347.5 133.6L345.8 131.9L348.5 129.1Z" fill="white"/>
</g>
</g>
<path d="M163.5 165.4L174.2 169.4L168.6 163.8C168.2 164 167.6 164 167.3 163.6C166.9 163.2 166.9 162.5 167.3 162C167.7 161.6 168.4 161.6 168.9 162C169.3 162.4 169.3 162.9 169.1 163.3L174.7 168.9L170.7 158.2L167.2 159L167.1 157.7L166.4 157L162.5 160.9L163.2 161.6L164.5 161.7L163.5 165.4Z" fill="#263238"/>
<g opacity="0.2">
<g opacity="0.2">
<path opacity="0.2" d="M163.5 165.4L174.2 169.4L168.6 163.8C168.2 164 167.6 164 167.3 163.6C166.9 163.2 166.9 162.5 167.3 162C167.7 161.6 168.4 161.6 168.9 162C169.3 162.4 169.3 162.9 169.1 163.3L174.7 168.9L170.7 158.2L167.2 159L167.1 157.7L166.4 157L162.5 160.9L163.2 161.6L164.5 161.7L163.5 165.4Z" fill="white"/>
</g>
</g>
<g opacity="0.1">
<g opacity="0.1">
<path opacity="0.1" d="M160.3 115.801L122.7 256.301V115.801H160.3Z" fill="white"/>
<path opacity="0.1" d="M202.7 115.801L157.7 284.101H126.7L171.7 115.801H202.7Z" fill="white"/>
<path opacity="0.1" d="M247.8 115.801L202.8 284.101H188.8L233.8 115.801H247.8Z" fill="white"/>
<path opacity="0.1" d="M289.3 115.801L244.3 284.101H239.3L284.3 115.801H289.3Z" fill="white"/>
</g>
</g>
<path d="M441.9 153C445.4 157.1 463.5 191.9 460 200C456.5 208.1 427.6 198.8 427.6 198.8L429.3 187.3C429.3 187.3 440.5 187.7 441.6 186.6C442.7 185.5 426.4 169.3 426.4 169.3L441.9 153Z" fill="#263238"/>
<g opacity="0.2">
<g opacity="0.2">
<path opacity="0.2" d="M460 200C459.6 200.9 458.9 201.6 457.9 202.1C457.7 202.2 457.5 202.3 457.3 202.4H457.2C457 202.5 456.8 202.5 456.7 202.6C455.9 202.9 455.1 203 454.2 203.1C454 203.1 453.7 203.1 453.5 203.2C453.1 203.2 452.8 203.2 452.4 203.3C452.1 203.3 451.8 203.3 451.4 203.3C441.7 203.3 427.6 198.7 427.6 198.7L429.3 187.2C429.3 187.2 440.5 187.6 441.6 186.5C441.9 186.2 441.1 185.1 439.8 183.5C436.6 179.6 430.2 173.1 427.6 170.4C426.9 169.6 426.4 169.2 426.4 169.2L441.9 152.9C445.4 157 463.5 191.8 460 200Z" fill="white"/>
</g>
</g>
<g opacity="0.2">
<g opacity="0.2">
<path opacity="0.2" d="M457.9 202.1C457.7 202.2 457.5 202.3 457.3 202.4C457.3 202.4 457.3 202.4 457.2 202.4C457 202.5 456.8 202.5 456.6 202.6C455.8 202.9 455 203 454.1 203.1C453.9 203.1 453.6 203.1 453.4 203.2C453 203.2 452.7 203.3 452.3 203.3C452 203.3 451.7 203.3 451.4 203.3C441.7 203.3 427.6 198.8 427.6 198.8L429.3 187.3C429.3 187.3 442 188.4 443 187.3C443.2 186.9 441.8 185.5 439.7 183.6C436.5 179.7 430.2 173.2 427.5 170.5L434.8 162.7L440.4 162.1C440.5 162 452.8 182 457.9 202.1Z" fill="#070809"/>
</g>
</g>
<path d="M405.4 151.801C403.4 153.301 402.4 155.301 403.2 156.401L456 229.301C456.8 230.401 459.1 230.101 461.1 228.601C463.1 227.101 464.1 225.101 463.3 224.001L410.5 151.101C409.7 150.101 407.4 150.401 405.4 151.801Z" fill="#263238"/>
<g opacity="0.7">
<g opacity="0.7">
<path opacity="0.7" d="M410.5 151.2L463.3 224.1C464.1 225.2 463.1 227.2 461.1 228.7C459.1 230.2 456.8 230.4 456 229.4L403.2 156.5C402.8 155.9 402.9 155 403.4 154.1C403.6 153.7 404 153.2 404.4 152.8C404.7 152.5 405 152.2 405.4 151.9C407.4 150.4 409.7 150.1 410.5 151.2Z" fill="white"/>
</g>
</g>
<g opacity="0.3">
<g opacity="0.3">
<path opacity="0.3" d="M463.3 224.001C464.1 225.101 463.1 227.101 461.1 228.601C459.1 230.101 456.8 230.301 456 229.301C455.6 228.701 456.7 227.801 457.3 226.501L403.4 154.001C403.6 153.601 404 153.101 404.4 152.701L457.2 225.601C457.5 225.301 457.8 225.001 458.2 224.701C460.3 223.201 462.5 222.901 463.3 224.001Z" fill="#070809"/>
</g>
</g>
<path d="M398.9 149.8C397.2 151.6 396.6 153.8 397.6 154.7L463.3 216.2C464.3 217.1 466.4 216.4 468.1 214.6C469.8 212.8 470.4 210.6 469.4 209.7L403.7 148.2C402.7 147.3 400.6 148 398.9 149.8Z" fill="#4C6EB2"/>
<g opacity="0.7">
<g opacity="0.7">
<path opacity="0.7" d="M403.701 148.2L469.401 209.7C470.401 210.6 469.801 212.8 468.101 214.6C466.401 216.4 464.201 217.1 463.301 216.2L397.601 154.7C397.101 154.2 397.001 153.3 397.301 152.3C397.501 151.8 397.701 151.3 398.001 150.8C398.201 150.5 398.501 150.1 398.801 149.8C400.601 148 402.701 147.3 403.701 148.2Z" fill="white"/>
</g>
</g>
<g opacity="0.3">
<g opacity="0.3">
<path opacity="0.3" d="M469.401 209.701C470.401 210.601 469.801 212.801 468.101 214.601C466.401 216.401 464.201 217.101 463.301 216.201C462.801 215.701 463.701 214.601 464.001 213.201L397.301 152.301C397.501 151.801 397.701 151.301 398.001 150.801L463.701 212.301C463.901 211.901 464.201 211.601 464.501 211.301C466.301 209.501 468.401 208.801 469.401 209.701Z" fill="#070809"/>
</g>
</g>
<path d="M414.701 346.101L409.701 346.201C404.601 322.301 401.001 292.701 398.801 270.401C398.401 266.901 398.101 263.601 397.801 260.501C397.701 259.001 397.501 257.601 397.401 256.301C396.801 249.601 396.401 244.301 396.101 241.001C395.901 238.601 395.801 237.301 395.801 237.301H414.001L413.801 241.901L413.201 257.101L413.101 258.801L412.701 268.901L412.101 286.001C418.401 310.001 414.701 346.101 414.701 346.101Z" fill="#E7B278"/>
<path d="M455.3 344.802L450.4 345.702C440.5 321.002 431.3 289.402 425.2 267.402C424.3 264.002 423.4 260.802 422.6 257.902C422.6 257.802 422.5 257.602 422.5 257.502C421 251.702 419.8 247.202 419.1 244.202C418.5 241.902 418.2 240.702 418.2 240.702L436 237.602L437 245.102L438.5 256.102L438.8 258.302L439.8 265.802L442.5 285.902C452.8 308.602 455.3 344.802 455.3 344.802Z" fill="#E7B278"/>
<g opacity="0.2">
<g opacity="0.2">
<path opacity="0.2" d="M438.501 256.101L422.601 257.901C422.601 257.801 422.501 257.601 422.501 257.501C421.001 251.701 419.801 247.201 419.101 244.201L437.101 245.101L438.501 256.101Z" fill="#070809"/>
</g>
</g>
<g opacity="0.2">
<g opacity="0.2">
<path opacity="0.2" d="M413.8 241.8L413.2 257L413.1 258.7L397.7 260.4C397.6 258.9 397.4 257.5 397.3 256.2C396.7 249.5 396.3 244.2 396 240.9L413.8 241.8Z" fill="#070809"/>
</g>
</g>
<path d="M399.901 362.7C400.801 361.9 401.901 361.4 403.001 361C403.001 361 406.401 357.6 408.101 347.4L412.601 346.2C414.201 345.8 415.801 346.5 416.701 347.8C416.801 348 416.901 348.2 417.001 348.4C417.201 349.5 417.401 350.6 417.501 351.7C417.901 355.1 417.601 362.9 417.601 362.9H416.801L416.501 355.9C416.401 353.5 414.601 356.3 414.001 358.9C413.501 361.5 412.401 364.2 407.101 364.3C400.901 364.5 398.301 364.2 399.901 362.7Z" fill="#263238"/>
<path d="M416.7 348C417 345.6 417.1 341.5 417.1 341.5L407.2 342.6C407.2 342.6 408.4 347.3 407.4 350.9C412.4 349.5 416.7 348 416.7 348Z" fill="#263238"/>
<path d="M440.2 362.7C441.1 361.9 442.2 361.4 443.3 361C443.3 361 446.7 357.6 448.4 347.4L452.9 346.2C454.5 345.8 456.1 346.5 457 347.8C457.1 348 457.2 348.2 457.3 348.4C457.5 349.5 457.7 350.6 457.8 351.7C458.2 355.1 457.9 362.9 457.9 362.9H457L456.7 355.9C456.6 353.5 454.8 356.3 454.2 358.9C453.7 361.5 452.6 364.2 447.3 364.3C441.2 364.5 438.7 364.2 440.2 362.7Z" fill="#263238"/>
<path d="M457.101 348C457.401 345.6 457.501 341.5 457.501 341.5L447.601 342.6C447.601 342.6 448.801 347.3 447.801 350.9C452.801 349.5 457.101 348 457.101 348Z" fill="#263238"/>
<path d="M440.3 251.201L421.4 253.601L420.7 253.701L416.8 239.501L415.8 254.701L395.6 253.601C386.6 200.701 402 188.201 402 188.201L429.4 193.701C441.8 214.801 438.9 239.401 438.9 239.401L440.3 251.201Z" fill="#4C6EB2"/>
<path d="M412.201 126.202C413.36 126.202 414.301 124.5 414.301 122.402C414.301 120.303 413.36 118.602 412.201 118.602C411.041 118.602 410.101 120.303 410.101 122.402C410.101 124.5 411.041 126.202 412.201 126.202Z" stroke="#263238" stroke-width="0.5" stroke-miterlimit="10" stroke-linecap="round" stroke-linejoin="round"/>
<path d="M427.8 135C427.7 135.1 427.6 135.1 427.6 135.2C426.5 136 425.2 136.7 423.8 137.1C419.7 138 417 137.5 415.2 135.6C412.7 132.8 412 128 412.4 122.1C412.6 119.4 412.9 117.1 413.7 115.2V115.1C413.7 115 413.8 114.9 413.8 114.9C414.9 112.4 416.8 110.7 419.7 110C420.7 109.8 421.9 109.6 423.2 109.6C434.5 109.5 436.6 128.5 427.8 135Z" fill="#E7B278"/>
<g opacity="0.2">
<g opacity="0.2">
<path opacity="0.2" d="M427.6 135.201C426.5 136.001 425.2 136.601 423.8 136.901C419.7 137.801 417 137.101 415.2 135.301C417.2 135.701 419.9 135.901 422.5 134.701C424 134.001 425.9 134.301 427.6 135.201Z" fill="#070809"/>
</g>
</g>
<path d="M428.801 145.602C429.501 148.902 425.301 150.202 425.301 150.202C418.401 147.202 417.101 143.602 417.101 143.602C422.901 140.602 421.201 132.102 421.201 132.102L422.401 132.702L430.601 134.302C430.601 134.302 428.301 138.702 428.001 139.702C426.401 144.802 428.801 145.602 428.801 145.602Z" fill="#E7B278"/>
<path d="M413.6 115.2C413.6 115.2 413 123.2 420.6 126.7C420.6 126.7 423.9 135 428.7 135.2C435.3 135.4 441 126 438.8 116.5C435.8 104.1 417.1 103.1 413.6 115.2Z" fill="#263238"/>
<path d="M416.7 124.4C416.7 123.1 417.7 121 419.7 121.3C421.7 121.6 422.8 126.6 417.9 127.7C417.2 127.8 416.7 127 416.7 124.4Z" fill="#E7B278"/>
<path d="M427.6 106.701C427.6 106.701 419.9 104.801 415.7 107.801C410.8 111.401 408.9 115.101 414.7 120.901C414.7 120.901 427.6 116.701 431.8 117.601C436.1 118.501 439.1 119.701 439.1 119.701C440.1 111.201 431.9 104.901 427.6 106.701Z" fill="#263238"/>
<path d="M416.701 122.4C416.701 122.4 418.701 131.7 415.601 139.6C415.601 139.6 433.801 145.9 440.101 142.5C446.401 139.1 440.601 127.6 440.401 120.9C440.101 114.3 437.301 104.5 427.601 106.7C418.001 108.9 416.701 122.4 416.701 122.4Z" fill="#263238"/>
<path d="M410.2 121.801H417.9" stroke="#263238" stroke-width="0.5" stroke-miterlimit="10" stroke-linecap="round" stroke-linejoin="round"/>
<g opacity="0.2">
<g opacity="0.2">
<path opacity="0.2" d="M421.401 253.6L420.701 253.7L416.801 239.5C416.801 239.5 425.101 225.3 422.501 217.9C422.901 218.4 431.801 231.7 421.401 253.6Z" fill="#070809"/>
</g>
</g>
<path d="M405.801 144.801C405.801 144.801 414.901 141.501 428.701 145.501C442.501 149.501 443.001 155.401 443.001 155.401C443.001 155.401 434.301 175.201 432.901 197.601L397.001 196.301C397.001 196.301 392.701 164.701 405.801 144.801Z" fill="#263238"/>
<g opacity="0.2">
<g opacity="0.2">
<path opacity="0.2" d="M443.1 155.401C443.1 155.401 434.4 175.201 433 197.601L397.1 196.301C397.1 196.301 396.5 191.901 396.4 185.301C396.3 180.701 396.6 175.101 397.4 169.201C398.6 160.901 401.1 152.001 405.9 144.801C405.9 144.801 415 141.501 428.8 145.501C442.6 149.501 443.1 155.401 443.1 155.401Z" fill="white"/>
</g>
</g>
<g opacity="0.2">
<g opacity="0.2">
<path opacity="0.2" d="M405.301 170.601C405.301 170.601 403.801 179.701 396.301 185.301C396.201 180.701 396.501 175.101 397.301 169.201L405.301 170.601Z" fill="#070809"/>
</g>
</g>
<path d="M365.6 144.202L361.1 137.502C361.1 137.502 360.4 134.602 359.5 133.902C358.6 133.202 349.9 129.502 348.9 129.602C347.9 129.602 347.9 136.402 348.9 137.502C349.9 138.602 355.4 141.102 356.9 141.402C358.3 141.702 357.6 141.402 357.6 141.402L361.6 149.402L365.6 144.202Z" fill="#E7B278"/>
<path d="M405.801 144.801C405.801 144.801 393.201 149.801 377.801 159.301L363.201 139.301C363.201 139.301 359.301 140.501 357.801 147.401C357.801 147.401 365.301 176.001 375.101 178.901C384.901 181.801 405.401 170.601 405.401 170.601C405.401 170.601 411.301 155.701 405.801 144.801Z" fill="#263238"/>
<g opacity="0.2">
<g opacity="0.2">
<path opacity="0.2" d="M405.801 144.801C405.801 144.801 393.201 149.801 377.801 159.301L363.201 139.301C363.201 139.301 359.301 140.501 357.801 147.401C357.801 147.401 365.301 176.001 375.101 178.901C384.901 181.801 405.401 170.601 405.401 170.601C405.401 170.601 411.301 155.701 405.801 144.801Z" fill="white"/>
</g>
</g>
<path d="M415.101 143.601C415.101 143.601 418.301 166.401 428.401 167.401C438.501 168.301 443.001 151.501 441.301 149.401C439.601 147.301 426.501 143.401 415.101 143.601Z" fill="#263238"/>
<g opacity="0.3">
<g opacity="0.3">
<path opacity="0.3" d="M415.101 143.601C415.101 143.601 418.301 166.401 428.401 167.401C438.501 168.301 443.001 151.501 441.301 149.401C439.601 147.301 426.501 143.401 415.101 143.601Z" fill="white"/>
</g>
</g>
<path d="M55.4004 353.7H62.8004L63.4004 336.5H56.0004L55.4004 353.7Z" fill="#B97863"/>
<path d="M63.8 352.799H54.8C54.5 352.799 54.2 352.999 54.2 353.299L52.7 359.899C52.6 360.499 53 361.099 53.5 361.199C53.6 361.199 53.7 361.199 53.7 361.199C56.6 361.199 58.7 360.999 62.4 360.999C64.7 360.999 71.4 361.199 74.6 361.199C77.7 361.199 78.1 358.099 76.8 357.799C71.1 356.599 66.8 354.799 65 353.199C64.7 352.999 64.3 352.799 63.8 352.799Z" fill="#263238"/>
<path d="M64.2992 353.798C64.1992 353.798 64.1992 353.698 64.1992 353.598C64.1992 353.498 64.1992 353.498 64.2992 353.398C64.5992 353.198 66.9992 351.798 67.7992 352.198C67.9992 352.298 68.0992 352.498 68.0992 352.698C68.0992 353.098 67.9992 353.398 67.6992 353.598C67.2992 353.898 66.7992 353.998 66.2992 353.998C65.5992 354.098 64.8992 353.998 64.2992 353.798ZM64.7992 353.598C65.6992 353.898 66.5992 353.798 67.3992 353.498C67.5992 353.298 67.6992 353.098 67.5992 352.898C67.5992 352.798 67.4992 352.698 67.4992 352.698C67.3992 352.698 67.3992 352.598 67.2992 352.698C66.3992 352.698 65.5992 353.098 64.7992 353.598Z" fill="#4C6EB2"/>
<path d="M64.2992 353.9C64.1992 353.9 64.1992 353.8 64.1992 353.7C64.1992 353.6 64.3992 351.5 65.1992 350.8C65.3992 350.6 65.6992 350.5 65.8992 350.6C66.1992 350.6 66.3992 350.8 66.4992 351.1C66.6992 351.9 65.1992 353.5 64.3992 353.9H64.2992ZM65.3992 351C64.8992 351.7 64.5992 352.5 64.4992 353.3C65.2992 352.7 66.1992 351.5 66.0992 351C66.0992 351 66.0992 350.8 65.7992 350.8H65.6992C65.6992 350.8 65.5992 350.9 65.3992 351Z" fill="#4C6EB2"/>
<g opacity="0.2">
<g opacity="0.2">
<path opacity="0.2" d="M55.9996 336.5H63.3996L63.0996 345.4H55.5996L55.9996 336.5Z" fill="#070809"/>
</g>
</g>
<path d="M93.5 354.199L101.1 354.999L102.6 338.499L94.9 337.699L93.5 354.199Z" fill="#B97863"/>
<path d="M101.9 352.6H92.8996C92.5996 352.6 92.2996 352.8 92.2996 353.1L90.7996 359.7C90.6996 360.3 91.0996 360.9 91.5996 361C91.6996 361 91.7996 361 91.7996 361C94.6996 361 96.7996 360.8 100.5 360.8C102.8 360.8 109.5 361 112.7 361C115.8 361 116.2 357.9 114.9 357.6C109.2 356.4 104.9 354.6 103.1 353C102.8 352.7 102.4 352.6 101.9 352.6Z" fill="#263238"/>
<path d="M102.499 353.599C102.399 353.599 102.399 353.499 102.399 353.399C102.399 353.299 102.399 353.299 102.499 353.199C102.799 352.999 105.199 351.599 105.999 351.999C106.199 352.099 106.299 352.299 106.299 352.499C106.399 352.899 106.199 353.199 105.899 353.399C105.499 353.699 104.999 353.799 104.499 353.799C103.699 353.899 103.099 353.799 102.499 353.599ZM102.999 353.399C103.899 353.699 104.799 353.599 105.599 353.299C105.799 353.099 105.899 352.899 105.799 352.699C105.799 352.599 105.699 352.499 105.699 352.499C105.599 352.499 105.599 352.399 105.499 352.499C104.599 352.499 103.699 352.899 102.999 353.399Z" fill="#4C6EB2"/>
<path d="M102.4 353.599C102.3 353.599 102.3 353.499 102.3 353.399C102.3 353.299 102.5 351.199 103.3 350.499C103.5 350.299 103.8 350.199 104 350.299C104.3 350.299 104.5 350.499 104.6 350.799C104.8 351.599 103.3 353.199 102.5 353.599H102.4C102.4 353.599 102.5 353.599 102.4 353.599ZM103.6 350.799C103.1 351.499 102.8 352.299 102.7 353.099C103.5 352.499 104.4 351.299 104.3 350.799C104.3 350.799 104.3 350.599 104 350.599V350.599C103.8 350.599 103.7 350.699 103.6 350.799Z" fill="#4C6EB2"/>
<g opacity="0.2">
<g opacity="0.2">
<path opacity="0.2" d="M94.8992 337.699L102.599 338.499L101.799 347.099L94.1992 346.199L94.8992 337.699Z" fill="#070809"/>
</g>
</g>
<path d="M58.9994 186H98.2994C101.999 206.4 113.699 278.6 105.299 343L91.9994 341.3C91.9994 341.3 93.1994 255.9 81.4994 224.3C80.0994 241.2 78.4994 259.2 77.1994 268.8C73.7994 292.3 66.4994 343.8 66.4994 343.8H52.8994C52.8994 343.8 55.6994 294.5 56.8994 271.4C58.3994 246.3 58.9994 191.2 58.9994 186Z" fill="#263238"/>
<path d="M106.899 346.1L90.3994 343.7L90.8994 339.1L108.099 341.4L106.899 346.1Z" fill="#4C6EB2"/>
<path d="M68.0996 343.898H52.0996V339.198L68.6996 338.898L68.0996 343.898Z" fill="#4C6EB2"/>
<g opacity="0.2">
<g opacity="0.2">
<path opacity="0.2" d="M81.5 224.398C83.2 229.098 84.7 234.898 85.9 241.398C87 226.398 82.6 210.398 82.6 210.398L81.5 224.398Z" fill="#070809"/>
</g>
</g>
<path d="M57.9 192.898L57 197.598C57 197.598 84.5 201.198 101.6 201.098L101 197.798L57.9 192.898Z" fill="#4C6EB2"/>
<path d="M113.699 151.799C113.699 151.799 123.199 181.799 129.699 183.799C136.199 185.799 152.699 160.999 152.699 160.999C152.699 160.999 167.499 160.899 168.199 159.799C168.899 158.799 164.299 148.299 163.299 148.299C162.199 148.299 149.299 153.199 148.799 153.999C148.299 154.799 133.499 168.999 132.799 168.599C132.099 168.199 126.499 150.399 126.499 150.399L113.699 151.799Z" fill="#B97863"/>
<path d="M154.699 159.399C154.799 159.399 154.899 159.299 155.099 159.299C154.999 159.299 154.999 159.199 154.899 159.199C154.799 159.199 154.799 159.299 154.699 159.399Z" fill="#B97863"/>
<path d="M108.3 148.299L109.5 150.399L114.9 160.399L116 162.499L131.2 157.199C131.2 157.199 124.9 133.599 122.7 131.199L108.3 148.299Z" fill="#4C6EB2"/>
<g opacity="0.4">
<g opacity="0.4">
<path opacity="0.4" d="M108.3 148.299L109.5 150.399L114.9 160.399L116 162.499L131.2 157.199C131.2 157.199 124.9 133.599 122.7 131.199L108.3 148.299Z" fill="white"/>
</g>
</g>
<g opacity="0.2">
<g opacity="0.2">
<path opacity="0.2" d="M109.5 150.399L114.9 160.399C118.2 153.799 117.3 144.799 117.3 144.799L109.5 150.399Z" fill="#070809"/>
</g>
</g>
<path d="M122.7 131.198C122.7 131.198 114.7 120.798 99.8 120.098C84.9 119.398 80.2 120.898 74.8 125.698C66.9 132.898 57 193.998 57 193.998C57 193.998 77.8 200.398 101.6 198.898C101.6 198.898 101.8 181.898 107.1 170.498C117.6 148.198 122.7 131.198 122.7 131.198Z" fill="#4C6EB2"/>
<g opacity="0.4">
<g opacity="0.4">
<path opacity="0.4" d="M57 193.998C57 193.998 77.8 200.398 101.6 198.898C101.6 198.898 101.6 196.798 101.9 193.598C102 192.098 102.2 190.298 102.5 188.398C102.8 186.398 103.1 184.298 103.6 182.098C103.8 180.898 104.1 179.798 104.4 178.598C105.1 175.798 106.1 172.998 107.2 170.498C107.9 169.098 108.5 167.698 109.1 166.298C110.2 163.898 111.2 161.598 112.1 159.398C114.1 154.798 115.8 150.498 117.2 146.798C118.2 144.098 119.1 141.698 119.8 139.698C120.6 137.398 121.3 135.498 121.7 134.098C122.3 132.198 122.6 131.198 122.6 131.198C122.6 131.198 122.1 130.498 121 129.398C118 126.398 111 120.798 100.2 120.098C100 120.098 99.9 120.098 99.7 120.098C88.4 119.598 82.9 120.298 78.6 122.798C77.2 123.598 76 124.598 74.7 125.698C73.8 126.498 72.9 127.998 72 129.998C70.5 133.298 68.9 137.898 67.5 143.298C67.3 144.098 67.1 144.898 66.8 145.698C65.8 149.398 64.9 153.398 64 157.398C63.7 158.498 63.5 159.698 63.2 160.798C62.8 162.498 62.5 164.298 62.1 165.998C61.2 170.298 60.4 174.498 59.7 178.198C58.7 183.598 57.9 188.098 57.4 190.898C57.2 192.898 57 193.998 57 193.998ZM100.7 120.698C101.7 120.698 102.8 120.798 103.7 120.898C107.7 121.398 113.8 124.598 113.7 126.198C113.5 127.698 111.2 131.598 105.2 130.698C103.1 130.398 101.1 129.398 99.4 128.298C96.1 126.098 93.7 123.198 93.5 122.198C93.2 120.998 97.1 120.598 100.7 120.698Z" fill="white"/>
</g>
</g>
<path d="M87.8994 141.1C87.8994 141.1 79.9994 160.2 78.3994 176L99.6994 178.7C99.6994 178.7 109.299 152.9 111.199 144.9C111.199 144.9 94.1994 143.2 87.8994 141.1Z" fill="#4C6EB2"/>
<g opacity="0.4">
<g opacity="0.4">
<path opacity="0.4" d="M107.1 145.6L110 145.9L107.9 147.6L107.1 145.6Z" fill="white"/>
</g>
</g>
<path d="M95.5 122.198C97.1 126.798 103.1 128.898 106.2 129.198C110.6 129.598 111.9 126.098 111.9 126.098C111.9 126.098 108.3 124.298 108.7 122.298C108.9 121.098 109.5 119.998 110.2 118.898C110.6 118.298 111 117.798 111.4 117.198L105.7 104.898C104.3 110.198 100.4 120.498 95.5 122.198Z" fill="#B97863"/>
<g opacity="0.2">
<g opacity="0.2">
<path opacity="0.2" d="M105.4 110.6C102.7 116.6 106.5 120.7 108.7 122.3C108.9 121.1 109.5 120 110.2 118.9L105.4 110.6Z" fill="#070809"/>
</g>
</g>
<path d="M124.699 94.5984C124.699 94.5984 126.499 104.798 121.199 108.798C115.899 112.898 115.399 93.8984 115.399 93.8984L124.699 94.5984Z" fill="#B97863"/>
<g opacity="0.4">
<g opacity="0.4">
<path opacity="0.4" d="M124.699 94.5984C124.699 94.5984 126.499 104.798 121.199 108.798C115.899 112.898 115.399 93.8984 115.399 93.8984L124.699 94.5984Z" fill="#070809"/>
</g>
</g>
<path d="M105.7 117.299C108.4 120.999 112.7 121.899 116.4 120.599C118.8 119.799 120.9 118.099 122.1 115.599C122.3 115.299 122.4 114.999 122.6 114.599C125.1 108.299 125.6 92.8995 118.9 93.4995C113.4 93.9995 108 92.2995 105.2 96.9995C104.4 98.3995 103.9 99.8995 103.8 101.499C103.3 108.799 102.6 113.099 105.7 117.299Z" fill="#B97863"/>
<path d="M114.6 105.1C114.5 105.7 114.8 106.2 115.1 106.3C115.5 106.4 115.9 105.9 116 105.3C116.1 104.7 115.8 104.2 115.5 104.1C115.1 104.1 114.7 104.5 114.6 105.1Z" fill="#263238"/>
<path d="M121.3 106.1C121.2 106.7 121.5 107.2 121.8 107.3C122.2 107.4 122.6 106.9 122.7 106.3C122.8 105.7 122.5 105.2 122.2 105.1C121.8 105.1 121.4 105.5 121.3 106.1Z" fill="#263238"/>
<path d="M119.1 106.1C119.5 108 120.3 109.8 121.2 111.6C120.3 112.1 119.2 112.1 118.3 111.7L119.1 106.1Z" fill="#A24E3F"/>
<path d="M112.8 102.7C112.9 102.7 113.1 102.7 113.2 102.6C113.8 102 114.7 101.6 115.6 101.8C115.8 101.8 116 101.7 116 101.5C116 101.3 115.9 101.1 115.7 101.1C114.6 100.9 113.5 101.3 112.7 102.1C112.6 102.2 112.6 102.5 112.7 102.6C112.7 102.6 112.8 102.6 112.8 102.7Z" fill="#263238"/>
<path d="M124.5 104.2C124.6 104.2 124.6 104.3 124.7 104.2C124.9 104.1 125 103.9 124.9 103.8C124.6 102.7 123.7 101.9 122.7 101.5C122.5 101.5 122.3 101.6 122.3 101.7C122.3 101.9 122.4 102.1 122.5 102.1C123.3 102.4 124 103.1 124.2 104C124.3 104.1 124.4 104.2 124.5 104.2Z" fill="#263238"/>
<path d="M113.699 111.898C113.699 111.898 114.899 114.498 117.399 114.398" stroke="#263238" stroke-width="0.5" stroke-miterlimit="10" stroke-linecap="round" stroke-linejoin="round"/>
<path d="M110.499 93.1992L110.599 96.4992C109.499 96.9992 108.699 98.0992 109.099 99.3992C109.899 102.199 107.999 106.299 105.699 107.699C105.699 107.699 105.699 106.499 104.699 106.699C103.699 106.899 103.399 112.999 104.999 116.099C104.999 116.099 101.499 112.799 100.399 106.299C99.3993 100.199 99.5993 96.3992 100.499 93.4992L110.499 93.1992Z" fill="#B97863"/>
<g opacity="0.4">
<g opacity="0.4">
<path opacity="0.4" d="M110.499 93.1992L110.599 96.4992C109.499 96.9992 108.699 98.0992 109.099 99.3992C109.899 102.199 107.999 106.299 105.699 107.699C105.699 107.699 105.699 106.499 104.699 106.699C103.699 106.899 103.399 112.999 104.999 116.099C104.999 116.099 101.499 112.799 100.399 106.299C99.3993 100.199 99.5993 96.3992 100.499 93.4992L110.499 93.1992Z" fill="#070809"/>
</g>
</g>
<path d="M99.8992 97.0991C99.8992 97.0991 104.099 97.699 110.599 96.399C120.699 94.399 124.999 98.0991 124.999 98.0991C124.999 98.0991 127.399 95.9991 127.099 93.0991C126.799 90.1991 122.799 89.699 122.799 89.699C122.799 89.699 121.599 86.399 118.899 85.399C116.199 84.399 113.599 86.899 113.599 86.899C113.599 86.899 110.299 83.6991 106.399 84.5991C101.599 85.6991 101.699 90.299 101.699 90.299C101.699 90.299 97.1992 90.7991 97.1992 93.0991C97.2992 95.5991 99.8992 97.0991 99.8992 97.0991Z" fill="#263238"/>
<path d="M118.7 105.599C118.7 107.699 117.2 109.399 115.4 109.399C113.6 109.399 112.1 107.699 112.1 105.599C112.1 103.499 113.6 101.799 115.4 101.799C117.2 101.799 118.7 103.499 118.7 105.599Z" stroke="#263238" stroke-width="0.5" stroke-miterlimit="10" stroke-linecap="round" stroke-linejoin="round"/>
<path d="M123.6 109.998C125.422 109.998 126.9 108.297 126.9 106.198C126.9 104.1 125.422 102.398 123.6 102.398C121.777 102.398 120.3 104.1 120.3 106.198C120.3 108.297 121.777 109.998 123.6 109.998Z" stroke="#263238" stroke-width="0.5" stroke-miterlimit="10" stroke-linecap="round" stroke-linejoin="round"/>
<path d="M118.699 106.1C118.699 106.1 119.799 105.4 120.399 106.2" stroke="#263238" stroke-width="0.5" stroke-miterlimit="10" stroke-linecap="round" stroke-linejoin="round"/>
<path d="M112.1 105.598L106.4 104.798C105.7 104.698 104.9 104.898 104.3 105.398L104 105.598" stroke="#263238" stroke-width="0.5" stroke-miterlimit="10" stroke-linecap="round" stroke-linejoin="round"/>
<path d="M99.8998 106.998C100.5 108.798 101.7 110.198 103.4 111.098C105.6 112.198 107.1 110.298 106.9 107.998C106.7 105.898 105.3 102.798 102.9 102.698C100.5 102.598 99.1998 104.898 99.8998 106.998Z" fill="#B97863"/>
<g opacity="0.2">
<g opacity="0.2">
<path opacity="0.2" d="M63.2998 160.8C72.6998 156.9 80.1998 140.7 80.1998 140.7L74.7998 137.5L67.4998 143.4C67.2998 144.2 67.0998 145 66.7998 145.8C65.7998 149.5 64.8998 153.5 63.9998 157.5C63.7998 158.5 63.5998 159.7 63.2998 160.8Z" fill="#070809"/>
</g>
</g>
<path d="M115.3 162.5L131.6 156.5L132.1 157.9L115.8 163.7L115.3 162.5Z" fill="#4C6EB2"/>
<path d="M25.9566 196.132L21.334 225.27L68.546 232.76L73.1687 203.623L25.9566 196.132Z" fill="#4C6EB2"/>
<path d="M42.6 207.299L33 212.199L40.6 219.899" stroke="white" stroke-width="2" stroke-miterlimit="10" stroke-linecap="round" stroke-linejoin="round"/>
<path d="M51.7998 221.7L61.3998 216.7L53.7998 209" stroke="white" stroke-width="2" stroke-miterlimit="10" stroke-linecap="round" stroke-linejoin="round"/>
<path d="M44 220.4L50.5 208.5" stroke="white" stroke-width="2" stroke-miterlimit="10" stroke-linecap="round" stroke-linejoin="round"/>
<path d="M69.2 128.398C69.2 128.398 51.4 146.298 49 149.698C46.6 153.098 41.9 191.598 41.9 191.598C41.9 191.598 40.9 191.898 40.8 192.798C40.7 193.598 40.6 204.398 40.8 204.898C41 205.398 49.1 210.498 50.3 209.198C51.5 207.998 53.2 195.798 53.2 195.798L48.9 191.598C48.9 191.598 53.9 163.298 57.1 158.698C60.2 154.098 73.2 144.298 73.2 144.298L69.2 128.398Z" fill="#B97863"/>
<path d="M82.9 121.199C85.5 126.699 83.5 138.199 78.7 142.299C71.5 148.499 62.7 153.799 62.7 153.799L54 142.399C54 142.399 63.3 133.299 68.9 128.099C75.7 121.699 82.9 121.199 82.9 121.199Z" fill="#4C6EB2"/>
<g opacity="0.4">
<g opacity="0.4">
<path opacity="0.4" d="M82.9 121.199C85.5 126.699 83.5 138.199 78.7 142.299C71.5 148.499 62.7 153.799 62.7 153.799L54 142.399C54 142.399 63.3 133.299 68.9 128.099C75.7 121.699 82.9 121.199 82.9 121.199Z" fill="white"/>
</g>
</g>
<path d="M53.9994 141.6L52.8994 143.1L61.9994 155L63.2994 154.1L53.9994 141.6Z" fill="#4C6EB2"/>
</svg>
