<svg width="453" height="422" viewBox="0 0 453 422" fill="none" xmlns="http://www.w3.org/2000/svg">
<rect width="452.205" height="421.217" fill="white"/>
<path d="M242.805 85.3171C198.105 -32.0829 -16.7948 -41.6829 12.5052 141.417C25.6052 223.217 82.0052 291.517 182.005 308.817C276.005 325.117 446.005 294.117 445.505 205.817C444.905 117.217 270.905 159.017 242.805 85.3171Z" fill="#8EBF9B"/>
<g opacity="0.7">
<g opacity="0.7">
<path opacity="0.7" d="M242.805 85.3171C198.105 -32.0829 -16.7948 -41.6829 12.5052 141.417C25.6052 223.217 82.0052 291.517 182.005 308.817C276.005 325.117 446.005 294.117 445.505 205.817C444.905 117.217 270.905 159.017 242.805 85.3171Z" fill="white"/>
</g>
</g>
<path d="M206.904 316.616C206.904 305.016 216.304 295.716 227.804 295.716C239.404 295.716 248.704 305.116 248.704 316.616L252.204 315.416V296.916L239.805 288.816L221.104 283.316L206.904 292.016L200.604 303.716V315.116L206.904 316.616Z" fill="#263238"/>
<path d="M294.205 381.617H161.505V374.817C161.505 370.317 165.205 366.617 169.705 366.617H286.005C290.505 366.617 294.205 370.317 294.205 374.817V381.617V381.617Z" fill="#9A9999"/>
<path d="M294.205 381.617H161.505V374.817C161.505 370.317 165.205 366.617 169.705 366.617H286.005C290.505 366.617 294.205 370.317 294.205 374.817V381.617V381.617Z" stroke="#263238" stroke-miterlimit="10" stroke-linecap="round" stroke-linejoin="round"/>
<path d="M254.105 266.518H201.705L190.505 366.618H265.305L254.105 266.518ZM227.905 334.018C216.305 334.018 207.005 324.618 207.005 313.118C207.005 301.518 216.405 292.218 227.905 292.218C239.505 292.218 248.805 301.618 248.805 313.118C248.805 324.618 239.405 334.018 227.905 334.018Z" fill="#757575"/>
<path d="M254.105 266.518H201.705L190.505 366.618H265.305L254.105 266.518ZM227.905 334.018C216.305 334.018 207.005 324.618 207.005 313.118C207.005 301.518 216.405 292.218 227.905 292.218C239.505 292.218 248.805 301.618 248.805 313.118C248.805 324.618 239.405 334.018 227.905 334.018Z" stroke="#263238" stroke-miterlimit="10" stroke-linecap="round" stroke-linejoin="round"/>
<path d="M412.805 19.7168H42.9045C33.3045 19.7168 25.6045 27.4168 25.6045 37.0168V260.917C25.6045 270.517 33.3045 278.217 42.9045 278.217H412.805C422.405 278.217 430.104 270.517 430.104 260.917V37.0168C430.104 27.5168 422.405 19.7168 412.805 19.7168Z" fill="#9A9999"/>
<path d="M412.805 19.7168H42.9045C33.3045 19.7168 25.6045 27.4168 25.6045 37.0168V260.917C25.6045 270.517 33.3045 278.217 42.9045 278.217H412.805C422.405 278.217 430.104 270.517 430.104 260.917V37.0168C430.104 27.5168 422.405 19.7168 412.805 19.7168Z" stroke="#263238" stroke-width="0.75" stroke-miterlimit="10" stroke-linecap="round" stroke-linejoin="round"/>
<path d="M25.7041 261.916C26.2041 271.016 33.7041 278.316 43.0041 278.316H412.904C422.104 278.316 429.704 271.016 430.204 261.916H25.7041Z" fill="#263238"/>
<path d="M25.7041 261.916C26.2041 271.016 33.7041 278.316 43.0041 278.316H412.904C422.104 278.316 429.704 271.016 430.204 261.916H25.7041Z" stroke="#263238" stroke-width="0.75" stroke-miterlimit="10" stroke-linecap="round" stroke-linejoin="round"/>
<path d="M412.804 37.0176H42.9043V260.918H412.804V37.0176Z" fill="#8EBF9B"/>
<g opacity="0.8">
<g opacity="0.8">
<path opacity="0.8" d="M412.805 37.0176H42.9053V260.918H412.805V37.0176Z" fill="white"/>
</g>
</g>
<path d="M412.805 37.0176H42.9053V260.918H412.805V37.0176Z" stroke="#263238" stroke-miterlimit="10" stroke-linecap="round" stroke-linejoin="round"/>
<path d="M412.805 37.0176H42.9053V57.6176H412.805V37.0176Z" fill="#8EBF9B"/>
<path d="M412.805 37.0176H42.9053V57.6176H412.805V37.0176Z" stroke="#263238" stroke-width="0.75" stroke-miterlimit="10" stroke-linecap="round" stroke-linejoin="round"/>
<path d="M62.2051 47.3184C62.2051 50.1184 60.0051 52.3184 57.2051 52.3184C54.4051 52.3184 52.2051 50.1184 52.2051 47.3184C52.2051 44.5184 54.4051 42.3184 57.2051 42.3184C59.9051 42.3184 62.2051 44.6184 62.2051 47.3184Z" fill="white"/>
<path d="M77.2051 47.3184C77.2051 50.1184 75.0051 52.3184 72.2051 52.3184C69.4051 52.3184 67.2051 50.1184 67.2051 47.3184C67.2051 44.5184 69.4051 42.3184 72.2051 42.3184C75.0051 42.3184 77.2051 44.6184 77.2051 47.3184Z" fill="white"/>
<path d="M92.3057 47.3184C92.3057 50.1184 90.1057 52.3184 87.3057 52.3184C84.5057 52.3184 82.3057 50.1184 82.3057 47.3184C82.3057 44.5184 84.5057 42.3184 87.3057 42.3184C90.0057 42.3184 92.3057 44.6184 92.3057 47.3184Z" fill="white"/>
<path d="M161.205 261.017V57.6172" stroke="#263238" stroke-width="0.75" stroke-miterlimit="10" stroke-linecap="round" stroke-linejoin="round"/>
<path d="M154.905 245.817C152.705 245.817 150.905 244.017 150.905 241.917V137.117C150.905 134.917 152.705 133.217 154.905 133.217C157.105 133.217 158.805 135.017 158.805 137.117V241.917C158.905 244.017 157.105 245.817 154.905 245.817Z" fill="#8EBF9B"/>
<g opacity="0.3">
<g opacity="0.3">
<path opacity="0.3" d="M154.905 245.817C152.705 245.817 150.905 244.017 150.905 241.917V137.117C150.905 134.917 152.705 133.217 154.905 133.217C157.105 133.217 158.805 135.017 158.805 137.117V241.917C158.905 244.017 157.105 245.817 154.905 245.817Z" fill="white"/>
</g>
</g>
<path d="M141.005 90.6172H52.2051V102.117H141.005V90.6172Z" fill="#8EBF9B"/>
<path d="M141.005 109.418H67.2051V120.918H141.005V109.418Z" fill="#8EBF9B"/>
<path d="M141.005 128.117H67.2051V139.617H141.005V128.117Z" fill="#8EBF9B"/>
<path d="M141.005 146.918H73.9053V158.418H141.005V146.918Z" fill="#8EBF9B"/>
<path d="M60.5049 118.517V111.717L63.9049 115.117L60.5049 118.517Z" fill="#263238"/>
<path d="M60.5049 118.517V111.717L63.9049 115.117L60.5049 118.517Z" stroke="#263238" stroke-width="0.75" stroke-miterlimit="10" stroke-linecap="round" stroke-linejoin="round"/>
<path d="M60.5049 137.318V130.518L63.9049 133.918L60.5049 137.318Z" fill="#263238"/>
<path d="M60.5049 137.318V130.518L63.9049 133.918L60.5049 137.318Z" stroke="#263238" stroke-width="0.75" stroke-miterlimit="10" stroke-linecap="round" stroke-linejoin="round"/>
<path d="M67.2051 156.017V149.217L70.6051 152.617L67.2051 156.017Z" fill="#263238"/>
<path d="M67.2051 156.017V149.217L70.6051 152.617L67.2051 156.017Z" stroke="#263238" stroke-width="0.75" stroke-miterlimit="10" stroke-linecap="round" stroke-linejoin="round"/>
<path d="M141.005 173.717H52.2051V185.217H141.005V173.717Z" fill="#8EBF9B"/>
<path d="M141.005 192.418H67.2051V203.918H141.005V192.418Z" fill="#8EBF9B"/>
<path d="M140.905 211.217H73.9053V222.717H140.905V211.217Z" fill="#8EBF9B"/>
<path d="M140.905 229.918H73.9053V241.418H140.905V229.918Z" fill="#8EBF9B"/>
<path d="M60.5049 201.616V194.816L63.9049 198.216L60.5049 201.616Z" fill="#263238"/>
<path d="M60.5049 201.616V194.816L63.9049 198.216L60.5049 201.616Z" stroke="#263238" stroke-width="0.75" stroke-miterlimit="10" stroke-linecap="round" stroke-linejoin="round"/>
<path d="M67.2051 220.317V213.617L70.6051 216.917L67.2051 220.317Z" fill="#263238"/>
<path d="M67.2051 220.317V213.617L70.6051 216.917L67.2051 220.317Z" stroke="#263238" stroke-width="0.75" stroke-miterlimit="10" stroke-linecap="round" stroke-linejoin="round"/>
<path d="M67.2051 239.116V232.316L70.6051 235.716L67.2051 239.116Z" fill="#263238"/>
<path d="M67.2051 239.116V232.316L70.6051 235.716L67.2051 239.116Z" stroke="#263238" stroke-width="0.75" stroke-miterlimit="10" stroke-linecap="round" stroke-linejoin="round"/>
<path d="M399.405 74.3164H282.505V115.216H399.405V74.3164Z" fill="white"/>
<path d="M399.405 74.3164H282.505V115.216H399.405V74.3164Z" stroke="#263238" stroke-width="0.75" stroke-miterlimit="10" stroke-linecap="round" stroke-linejoin="round"/>
<path d="M272.505 74.3164H173.305V161.816H272.505V74.3164Z" fill="white"/>
<path d="M272.505 74.3164H173.305V161.816H272.505V74.3164Z" stroke="#263238" stroke-width="0.75" stroke-miterlimit="10" stroke-linecap="round" stroke-linejoin="round"/>
<path d="M272.505 161.816L173.305 74.3164" stroke="#263238" stroke-width="0.5" stroke-miterlimit="10" stroke-linecap="round" stroke-linejoin="round"/>
<path d="M173.305 161.816L272.505 74.3164" stroke="#263238" stroke-width="0.5" stroke-miterlimit="10" stroke-linecap="round" stroke-linejoin="round"/>
<path d="M337.505 120.918H282.505V161.818H337.505V120.918Z" fill="#8EBF9B"/>
<path d="M337.505 120.918H282.505V161.818H337.505V120.918Z" stroke="#263238" stroke-width="0.75" stroke-miterlimit="10"/>
<path d="M399.405 120.918H344.405V161.818H399.405V120.918Z" fill="white"/>
<path d="M399.405 120.918H344.405V161.818H399.405V120.918Z" stroke="#263238" stroke-width="0.75" stroke-miterlimit="10" stroke-linecap="round" stroke-linejoin="round"/>
<path d="M399.405 161.818L344.405 120.918" stroke="#263238" stroke-width="0.5" stroke-miterlimit="10" stroke-linecap="round" stroke-linejoin="round"/>
<path d="M344.405 161.818L399.405 120.918" stroke="#263238" stroke-width="0.5" stroke-miterlimit="10" stroke-linecap="round" stroke-linejoin="round"/>
<path d="M399.405 167.518H282.505V244.318H399.405V167.518Z" fill="white"/>
<path d="M399.405 167.518H282.505V244.318H399.405V167.518Z" stroke="#263238" stroke-width="0.75" stroke-miterlimit="10" stroke-linecap="round" stroke-linejoin="round"/>
<path d="M271.805 167.518H222.905V203.018H271.805V167.518Z" fill="white"/>
<path d="M271.805 167.518H222.905V203.018H271.805V167.518Z" stroke="#263238" stroke-width="0.75" stroke-miterlimit="10" stroke-linecap="round" stroke-linejoin="round"/>
<path d="M271.805 208.816H222.905V244.316H271.805V208.816Z" stroke="#263238" stroke-width="0.75" stroke-miterlimit="10" stroke-linecap="round" stroke-linejoin="round"/>
<path d="M403.105 113.418H348.105V154.318H403.105V113.418Z" fill="#8EBF9B"/>
<path d="M403.105 113.418H348.105V154.318H403.105V113.418Z" stroke="#263238" stroke-width="0.75" stroke-miterlimit="10" stroke-linecap="round" stroke-linejoin="round"/>
<path d="M357.405 116.117H351.605V120.417H357.405V116.117Z" fill="#263238"/>
<path d="M357.405 116.117H351.605V120.417H357.405V116.117Z" stroke="#263238" stroke-miterlimit="10" stroke-linecap="round" stroke-linejoin="round"/>
<path d="M357.005 145.418L370.005 125.518L383.105 145.418H357.005Z" fill="#9A9999"/>
<path d="M357.005 145.418L370.005 125.518L383.105 145.418H357.005Z" stroke="#263238" stroke-width="0.75" stroke-miterlimit="10" stroke-linecap="round" stroke-linejoin="round"/>
<path d="M374.205 145.417L384.205 130.217L394.105 145.417H374.205Z" fill="#757575"/>
<path d="M374.205 145.417L384.205 130.217L394.105 145.417H374.205Z" stroke="#263238" stroke-width="0.75" stroke-miterlimit="10" stroke-linecap="round" stroke-linejoin="round"/>
<path d="M383.005 125.517C383.005 127.317 381.505 128.817 379.705 128.817C377.905 128.817 376.405 127.317 376.405 125.517C376.405 123.717 377.905 122.217 379.705 122.217C381.505 122.217 383.005 123.717 383.005 125.517Z" fill="white"/>
<path d="M383.005 125.517C383.005 127.317 381.505 128.817 379.705 128.817C377.905 128.817 376.405 127.317 376.405 125.517C376.405 123.717 377.905 122.217 379.705 122.217C381.505 122.217 383.005 123.717 383.005 125.517Z" stroke="#263238" stroke-width="0.75" stroke-miterlimit="10" stroke-linecap="round" stroke-linejoin="round"/>
<path d="M263.105 170.418H214.205V205.918H263.105V170.418Z" fill="#8EBF9B"/>
<path d="M263.105 170.418H214.205V205.918H263.105V170.418Z" stroke="#263238" stroke-width="0.75" stroke-miterlimit="10" stroke-linecap="round" stroke-linejoin="round"/>
<path d="M231.905 178.717L247.105 188.217L231.905 197.617L234.805 188.217L231.905 178.717Z" fill="#263238"/>
<path d="M231.905 178.717L247.105 188.217L231.905 197.617L234.805 188.217L231.905 178.717Z" stroke="#263238" stroke-width="0.75" stroke-miterlimit="10" stroke-linecap="round" stroke-linejoin="round"/>
<path d="M234.805 188.217L231.905 178.717L247.105 188.217H234.805Z" fill="white"/>
<path d="M234.805 188.217L231.905 178.717L247.105 188.217H234.805Z" stroke="#263238" stroke-width="0.75" stroke-miterlimit="10" stroke-linecap="round" stroke-linejoin="round"/>
<path d="M394.505 63.3164H372.705V104.516H403.305V72.1164L394.505 63.3164Z" fill="#8EBF9B"/>
<path d="M394.505 63.3164H372.705V104.516H403.305V72.1164L394.505 63.3164Z" stroke="#263238" stroke-width="0.75" stroke-miterlimit="10" stroke-linecap="round" stroke-linejoin="round"/>
<path d="M403.305 72.1164H394.505V63.3164L403.305 72.1164Z" fill="#8EBF9B"/>
<path d="M403.305 72.1164H394.505V63.3164L403.305 72.1164Z" stroke="#263238" stroke-width="0.75" stroke-miterlimit="10" stroke-linecap="round" stroke-linejoin="round"/>
<path d="M386.005 75.8164H389.805L392.705 93.6164H389.905L389.405 90.1164V90.2164H386.205L385.705 93.7164H383.105L386.005 75.8164ZM389.105 87.7164L387.905 78.9164H387.805L386.605 87.7164H389.105Z" fill="#263238"/>
<path d="M354.405 67.1172H332.605V108.317H363.305V75.9172L354.405 67.1172Z" fill="#8EBF9B"/>
<path d="M354.405 67.1172H332.605V108.317H363.305V75.9172L354.405 67.1172Z" stroke="#263238" stroke-width="0.75" stroke-miterlimit="10" stroke-linecap="round" stroke-linejoin="round"/>
<path d="M363.305 75.9172H354.405V67.1172L363.305 75.9172Z" fill="#8EBF9B"/>
<path d="M363.305 75.9172H354.405V67.1172L363.305 75.9172Z" stroke="#263238" stroke-width="0.75" stroke-miterlimit="10" stroke-linecap="round" stroke-linejoin="round"/>
<path d="M345.105 93.618L344.205 97.418H343.205L346.905 80.418H348.505L352.305 97.418H351.205L350.405 93.618H345.105ZM345.305 92.718H350.205L347.705 81.718L345.305 92.718Z" fill="#263238"/>
<path d="M313.805 60.6172H287.705V110.117H324.405V71.2172L313.805 60.6172Z" fill="#8EBF9B"/>
<path d="M313.805 60.6172H287.705V110.117H324.405V71.2172L313.805 60.6172Z" stroke="#263238" stroke-width="0.75" stroke-miterlimit="10" stroke-linecap="round" stroke-linejoin="round"/>
<path d="M324.405 71.2172H313.805V60.6172L324.405 71.2172Z" fill="#8EBF9B"/>
<path d="M324.405 71.2172H313.805V60.6172L324.405 71.2172Z" stroke="#263238" stroke-width="0.75" stroke-miterlimit="10" stroke-linecap="round" stroke-linejoin="round"/>
<path d="M302.605 93.0168L301.405 97.7168H300.805L305.605 77.7168H306.505L311.405 97.7168H310.805L309.605 93.0168H302.605ZM302.705 92.4168H309.605L306.105 78.5168L302.705 92.4168Z" fill="#263238"/>
<path d="M279.405 212.918H230.505V248.418H279.405V212.918Z" fill="white"/>
<path d="M279.405 212.918H230.505V248.418H279.405V212.918Z" stroke="#263238" stroke-width="0.75" stroke-miterlimit="10" stroke-linecap="round" stroke-linejoin="round"/>
<path d="M261.905 221.616C258.005 217.716 251.805 217.716 247.905 221.616C244.005 225.516 244.005 231.716 247.905 235.616L254.905 242.616L261.905 235.616C265.805 231.716 265.805 225.516 261.905 221.616ZM258.205 231.916C256.405 233.716 253.505 233.716 251.705 231.916C249.905 230.116 249.905 227.216 251.705 225.416C253.505 223.616 256.405 223.616 258.205 225.416C260.005 227.216 260.005 230.116 258.205 231.916Z" fill="#8EBF9B"/>
<path d="M261.905 221.616C258.005 217.716 251.805 217.716 247.905 221.616C244.005 225.516 244.005 231.716 247.905 235.616L254.905 242.616L261.905 235.616C265.805 231.716 265.805 225.516 261.905 221.616ZM258.205 231.916C256.405 233.716 253.505 233.716 251.705 231.916C249.905 230.116 249.905 227.216 251.705 225.416C253.505 223.616 256.405 223.616 258.205 225.416C260.005 227.216 260.005 230.116 258.205 231.916Z" stroke="#263238" stroke-miterlimit="10" stroke-linecap="round" stroke-linejoin="round"/>
<path d="M266.305 68.0176H167.105V155.518H266.305V68.0176Z" fill="#8EBF9B"/>
<path d="M266.305 68.0176H167.105V155.518H266.305V68.0176Z" stroke="#263238" stroke-width="0.75" stroke-miterlimit="10" stroke-linecap="round" stroke-linejoin="round"/>
<path d="M180.305 72.0176H171.705V79.6176H180.305V72.0176Z" fill="#263238"/>
<path d="M180.305 72.0176H171.705V79.6176H180.305V72.0176Z" stroke="#263238" stroke-miterlimit="10" stroke-linecap="round" stroke-linejoin="round"/>
<path d="M178.905 135.017L205.605 94.2168L232.305 135.017H178.905Z" fill="#9A9999"/>
<path d="M178.905 135.017L205.605 94.2168L232.305 135.017H178.905Z" stroke="#263238" stroke-width="0.75" stroke-miterlimit="10" stroke-linecap="round" stroke-linejoin="round"/>
<path d="M232.105 94.218C232.105 98.018 229.105 101.018 225.305 101.018C221.505 101.018 218.505 98.018 218.505 94.218C218.505 90.418 221.505 87.418 225.305 87.418C229.105 87.418 232.105 90.518 232.105 94.218Z" fill="white"/>
<path d="M227.913 100.512C231.383 99.0743 233.03 95.0964 231.593 91.6266C230.156 88.1569 226.178 86.5092 222.708 87.9465C219.239 89.3837 217.591 93.3616 219.028 96.8314C220.465 100.301 224.443 101.949 227.913 100.512Z" stroke="#263238" stroke-width="0.75" stroke-miterlimit="10" stroke-linecap="round" stroke-linejoin="round"/>
<path d="M214.205 135.018L234.605 103.918L254.905 135.018H214.205Z" fill="#9A9999"/>
<path d="M214.205 135.018L234.605 103.918L254.905 135.018H214.205Z" stroke="#263238" stroke-width="0.75" stroke-miterlimit="10" stroke-linecap="round" stroke-linejoin="round"/>
<path d="M326.405 203.717C327.605 210.717 323.005 217.317 316.005 218.517C309.005 219.717 302.405 215.117 301.205 208.117C300.005 201.117 304.605 194.517 311.605 193.317C318.605 192.117 325.205 196.717 326.405 203.717Z" fill="#8EBF9B"/>
<path d="M326.405 203.717C327.605 210.717 323.005 217.317 316.005 218.517C309.005 219.717 302.405 215.117 301.205 208.117C300.005 201.117 304.605 194.517 311.605 193.317C318.605 192.117 325.205 196.717 326.405 203.717Z" stroke="#263238" stroke-miterlimit="10" stroke-linecap="round" stroke-linejoin="round"/>
<path d="M307.705 201.617L320.005 210.217" stroke="#263238" stroke-width="1.5" stroke-miterlimit="10" stroke-linecap="round" stroke-linejoin="round"/>
<path d="M318.105 199.816L309.605 212.016" stroke="#263238" stroke-width="1.5" stroke-miterlimit="10" stroke-linecap="round" stroke-linejoin="round"/>
<path d="M353.505 218.818C354.705 225.818 350.105 232.418 343.105 233.618C336.105 234.818 329.505 230.218 328.305 223.218C327.105 216.318 331.705 209.618 338.705 208.418C345.705 207.218 352.305 211.918 353.505 218.818Z" fill="white"/>
<path d="M353.505 218.818C354.705 225.818 350.105 232.418 343.105 233.618C336.105 234.818 329.505 230.218 328.305 223.218C327.105 216.318 331.705 209.618 338.705 208.418C345.705 207.218 352.305 211.918 353.505 218.818Z" stroke="#263238" stroke-miterlimit="10" stroke-linecap="round" stroke-linejoin="round"/>
<path d="M334.805 216.816L347.005 225.316" stroke="#263238" stroke-width="3" stroke-miterlimit="10" stroke-linecap="round" stroke-linejoin="round"/>
<path d="M345.205 214.918L336.705 227.218" stroke="#263238" stroke-width="3" stroke-miterlimit="10" stroke-linecap="round" stroke-linejoin="round"/>
<path d="M378.405 199.417C379.605 206.417 375.005 213.017 368.005 214.217C361.005 215.417 354.405 210.817 353.205 203.817C352.005 196.917 356.605 190.217 363.605 189.017C370.605 187.817 377.205 192.517 378.405 199.417Z" fill="#9A9999"/>
<path d="M378.405 199.417C379.605 206.417 375.005 213.017 368.005 214.217C361.005 215.417 354.405 210.817 353.205 203.817C352.005 196.917 356.605 190.217 363.605 189.017C370.605 187.817 377.205 192.517 378.405 199.417Z" stroke="#263238" stroke-width="0.75" stroke-miterlimit="10" stroke-linecap="round" stroke-linejoin="round"/>
<path d="M371.905 207.617C371.605 207.617 371.205 207.517 370.905 207.317L358.705 198.717C357.905 198.217 357.705 197.117 358.305 196.317C358.805 195.517 359.905 195.317 360.705 195.917L372.905 204.517C373.705 205.017 373.905 206.117 373.305 206.917C373.005 207.417 372.505 207.617 371.905 207.617Z" fill="white"/>
<path d="M361.505 209.518C361.205 209.518 360.805 209.418 360.505 209.218C359.705 208.718 359.505 207.618 360.105 206.818L368.705 194.618C369.205 193.818 370.305 193.618 371.105 194.218C371.905 194.718 372.105 195.818 371.505 196.618L362.905 208.818C362.605 209.218 362.105 209.518 361.505 209.518Z" fill="white"/>
<path d="M108.305 381.617H43.9049L37.0049 355.717H115.205L108.305 381.617Z" fill="#263238"/>
<path d="M108.305 381.617H43.9049L37.0049 355.717H115.205L108.305 381.617Z" stroke="#263238" stroke-width="0.75" stroke-miterlimit="10" stroke-linecap="round" stroke-linejoin="round"/>
<path d="M67.2045 361.516C67.2045 361.516 62.2045 335.516 42.9045 320.816C27.9045 309.316 12.1045 283.316 12.1045 283.316" stroke="#263238" stroke-width="0.75" stroke-miterlimit="10" stroke-linecap="round" stroke-linejoin="round"/>
<path d="M45.9051 328.017C45.9051 328.017 26.0051 324.017 32.9051 336.117C39.8051 348.217 55.7051 343.017 55.7051 343.017C55.7051 343.017 69.3051 334.117 62.3051 323.217C55.4051 312.517 45.9051 328.017 45.9051 328.017Z" fill="#8EBF9B"/>
<g opacity="0.1">
<g opacity="0.1">
<path opacity="0.1" d="M62.3046 323.316C55.4046 312.516 45.9046 328.116 45.9046 328.116C45.9046 328.116 44.5046 335.916 55.7046 343.116C55.7046 343.016 69.2046 334.116 62.3046 323.316Z" fill="#070809"/>
</g>
</g>
<path d="M12.9049 283.417C12.9049 283.417 0.304856 271.817 0.00485605 283.617C-0.295144 295.417 13.4049 298.617 13.4049 298.617C13.4049 298.617 27.1049 298.017 26.9049 287.217C26.6049 276.317 12.9049 283.417 12.9049 283.417Z" fill="#8EBF9B"/>
<g opacity="0.1">
<g opacity="0.1">
<path opacity="0.1" d="M26.9046 287.216C26.6046 276.416 12.9046 283.416 12.9046 283.416C12.9046 283.416 8.40462 288.416 13.4046 298.516C13.4046 298.616 27.1046 298.016 26.9046 287.216Z" fill="#070809"/>
</g>
</g>
<path d="M28.8053 305.418C28.8053 305.418 23.8053 289.018 34.6053 293.818C45.3053 298.718 42.2053 312.418 42.2053 312.418C42.2053 312.418 35.7053 324.518 26.1053 319.518C16.5053 314.618 28.8053 305.418 28.8053 305.418Z" fill="#8EBF9B"/>
<g opacity="0.1">
<g opacity="0.1">
<path opacity="0.1" d="M26.1053 319.617C16.5053 314.617 28.8053 305.417 28.8053 305.417C28.8053 305.417 35.2053 303.617 42.2053 312.517C42.2053 312.517 35.8053 324.617 26.1053 319.617Z" fill="#070809"/>
</g>
</g>
<path d="M83.6045 361.518C83.6045 361.518 91.7045 338.518 111.904 325.818C132.104 313.118 141.004 297.518 141.004 297.518" stroke="#263238" stroke-width="0.75" stroke-miterlimit="10" stroke-linecap="round" stroke-linejoin="round"/>
<path d="M67.2051 294.316C67.2051 294.316 75.3051 304.716 76.9051 323.316C78.5051 341.916 79.9051 361.516 79.9051 361.516" stroke="#263238" stroke-width="0.75" stroke-miterlimit="10" stroke-linecap="round" stroke-linejoin="round"/>
<path d="M75.205 309.816C75.205 309.816 69.405 297.116 83.505 300.416C97.605 303.716 92.705 314.716 92.705 314.716C92.705 314.716 83.405 324.616 70.805 321.216C58.205 317.816 75.205 309.816 75.205 309.816Z" fill="#8EBF9B"/>
<g opacity="0.1">
<g opacity="0.1">
<path opacity="0.1" d="M70.9048 321.118C58.2048 317.718 75.3048 309.718 75.3048 309.718C75.3048 309.718 84.0048 307.918 92.9048 314.618C92.8048 314.718 83.5048 324.618 70.9048 321.118Z" fill="#070809"/>
</g>
</g>
<path d="M130.405 312.018C130.405 312.018 124.605 299.318 138.705 302.618C152.805 305.918 147.905 316.918 147.905 316.918C147.905 316.918 138.605 326.818 126.005 323.418C113.405 319.918 130.405 312.018 130.405 312.018Z" fill="#8EBF9B"/>
<g opacity="0.1">
<g opacity="0.1">
<path opacity="0.1" d="M126.004 323.317C113.304 319.917 130.404 311.917 130.404 311.917C130.404 311.917 139.104 310.117 148.004 316.817C148.004 316.917 138.704 326.817 126.004 323.317Z" fill="#070809"/>
</g>
</g>
<path d="M98.6053 339.316C98.6053 339.316 95.8053 325.616 108.805 331.916C121.805 338.216 114.605 347.916 114.605 347.916C114.605 347.916 103.405 355.516 91.8053 349.416C80.3053 343.316 98.6053 339.316 98.6053 339.316Z" fill="#8EBF9B"/>
<g opacity="0.1">
<g opacity="0.1">
<path opacity="0.1" d="M91.8049 349.416C80.2049 343.216 98.6049 339.316 98.6049 339.316C98.6049 339.316 107.505 339.516 114.605 348.016C114.705 347.916 103.405 355.616 91.8049 349.416Z" fill="#070809"/>
</g>
</g>
<path d="M76.7045 331.717C76.7045 331.717 72.7045 323.017 82.4045 325.317C92.0045 327.517 88.7045 335.117 88.7045 335.117C88.7045 335.117 82.4045 341.917 73.7045 339.517C65.1045 337.117 76.7045 331.717 76.7045 331.717Z" fill="#8EBF9B"/>
<g opacity="0.1">
<g opacity="0.1">
<path opacity="0.1" d="M73.7045 339.418C65.1045 337.118 76.7045 331.618 76.7045 331.618C76.7045 331.618 82.6045 330.418 88.7045 334.918C88.7045 335.018 82.4045 341.818 73.7045 339.418Z" fill="#070809"/>
</g>
</g>
<path d="M68.1045 293.617C68.1045 293.617 73.1045 280.317 61.6045 284.017C50.1045 287.717 53.8045 299.017 53.8045 299.017C53.8045 299.017 61.1045 309.017 71.4045 305.217C81.7045 301.417 68.1045 293.617 68.1045 293.617Z" fill="#8EBF9B"/>
<g opacity="0.1">
<g opacity="0.1">
<path opacity="0.1" d="M71.4047 305.218C81.7047 301.418 68.1047 293.618 68.1047 293.618C68.1047 293.618 61.1047 291.918 53.8047 299.018C53.8047 299.018 61.1047 309.018 71.4047 305.218Z" fill="#070809"/>
</g>
</g>
<path d="M140.204 292.516C140.204 292.516 134.604 284.216 143.104 284.816C151.604 285.416 151.004 293.816 151.004 293.816C151.004 293.816 147.704 301.916 140.004 301.016C132.204 300.116 140.204 292.516 140.204 292.516Z" fill="#8EBF9B"/>
<g opacity="0.1">
<g opacity="0.1">
<path opacity="0.1" d="M139.905 301.017C132.205 300.117 140.205 292.417 140.205 292.417C140.205 292.417 144.705 290.117 150.905 293.717C150.905 293.817 147.605 301.917 139.905 301.017Z" fill="#070809"/>
</g>
</g>
<path d="M114.905 321.417C114.905 321.417 135.005 318.717 124.505 309.517C114.005 300.317 100.705 310.517 100.705 310.517C100.705 310.517 90.8046 323.417 100.905 331.317C111.105 339.217 114.905 321.417 114.905 321.417Z" fill="#8EBF9B"/>
<g opacity="0.1">
<g opacity="0.1">
<path opacity="0.1" d="M101.005 331.316C111.105 339.216 115.005 321.416 115.005 321.416C115.005 321.416 113.805 313.616 100.805 310.516C100.705 310.416 90.9045 323.316 101.005 331.316Z" fill="#070809"/>
</g>
</g>
<path d="M63.5051 344.318C63.5051 344.318 58.5051 327.918 69.3051 332.718C80.0051 337.618 76.9051 351.318 76.9051 351.318C76.9051 351.318 70.4051 363.418 60.8051 358.418C51.1051 353.518 63.5051 344.318 63.5051 344.318Z" fill="#8EBF9B"/>
<g opacity="0.1">
<g opacity="0.1">
<path opacity="0.1" d="M60.8045 358.517C51.2045 353.517 63.5045 344.317 63.5045 344.317C63.5045 344.317 69.9045 342.517 76.9045 351.417C76.9045 351.317 70.4045 363.517 60.8045 358.517Z" fill="#070809"/>
</g>
</g>
<path d="M341.205 328.017C341.205 328.017 305.805 283.017 344.105 322.517C344.105 322.517 336.805 278.717 351.005 324.217C351.005 324.217 360.605 281.818 357.105 330.418C357.105 330.418 374.705 289.617 359.505 340.017C359.505 340.017 300.805 357.918 344.905 339.818C344.905 339.818 284.805 336.517 340.205 334.517C340.405 334.517 280.105 306.617 341.205 328.017Z" fill="#8EBF9B"/>
<g opacity="0.1">
<g opacity="0.1">
<path opacity="0.1" d="M341.205 328.017C341.205 328.017 305.805 283.017 344.105 322.517C344.105 322.517 336.805 278.717 351.005 324.217C351.005 324.217 360.605 281.818 357.105 330.418C357.105 330.418 374.705 289.617 359.505 340.017C359.505 340.017 300.805 357.918 344.905 339.818C344.905 339.818 284.805 336.517 340.205 334.517C340.405 334.517 280.105 306.617 341.205 328.017Z" fill="#070809"/>
</g>
</g>
<path d="M346.005 328.617C346.005 328.617 366.205 340.717 371.705 358.017" stroke="#263238" stroke-width="0.75" stroke-miterlimit="10" stroke-linecap="round" stroke-linejoin="round"/>
<path d="M411.205 353.818H345.205C344.105 353.818 343.205 354.718 343.205 355.818C343.205 356.918 344.105 357.818 345.205 357.818H346.605L351.205 374.918C352.305 378.918 355.905 381.718 360.105 381.718H396.305C400.505 381.718 404.105 378.918 405.205 374.918L409.805 357.818H411.205C412.305 357.818 413.205 356.918 413.205 355.818C413.205 354.618 412.305 353.818 411.205 353.818Z" fill="#263238"/>
<path d="M411.205 353.818H345.205C344.105 353.818 343.205 354.718 343.205 355.818C343.205 356.918 344.105 357.818 345.205 357.818H346.605L351.205 374.918C352.305 378.918 355.905 381.718 360.105 381.718H396.305C400.505 381.718 404.105 378.918 405.205 374.918L409.805 357.818H411.205C412.305 357.818 413.205 356.918 413.205 355.818C413.205 354.618 412.305 353.818 411.205 353.818Z" stroke="#263238" stroke-width="0.75" stroke-miterlimit="10" stroke-linecap="round" stroke-linejoin="round"/>
<path d="M362.205 315.218C362.205 315.218 340.805 250.918 367.705 310.318C367.705 310.318 377.205 258.618 374.705 315.018C374.705 315.018 402.405 271.718 379.005 324.418C379.005 324.418 414.905 286.118 377.805 336.018C377.805 336.018 305.305 332.418 361.605 329.918C361.605 329.918 296.005 302.118 358.505 322.118C358.705 322.218 302.805 266.818 362.205 315.218Z" fill="#8EBF9B"/>
<path d="M366.805 316.717C366.805 316.717 381.205 337.017 386.405 358.117" stroke="#263238" stroke-width="0.75" stroke-miterlimit="10" stroke-linecap="round" stroke-linejoin="round"/>
<path d="M397.906 318.317C397.906 318.317 448.306 278.617 404.006 321.617C404.006 321.617 453.106 313.417 402.006 329.417C402.006 329.417 449.506 340.217 395.006 336.317C395.006 336.317 440.706 356.017 384.306 339.017C384.306 339.017 364.306 273.317 384.606 322.617C384.606 322.617 388.306 255.317 390.606 317.417C390.606 317.317 422.006 249.717 397.906 318.317Z" fill="#8EBF9B"/>
<g opacity="0.3">
<g opacity="0.3">
<path opacity="0.3" d="M397.906 318.317C397.906 318.317 448.306 278.617 404.006 321.617C404.006 321.617 453.106 313.417 402.006 329.417C402.006 329.417 449.506 340.217 395.006 336.317C395.006 336.317 440.706 356.017 384.306 339.017C384.306 339.017 364.306 273.317 384.606 322.617C384.606 322.617 388.306 255.317 390.606 317.417C390.606 317.317 422.006 249.717 397.906 318.317Z" fill="white"/>
</g>
</g>
<path d="M374.105 360.918C383.205 330.618 399.205 323.318 399.205 323.318" stroke="#263238" stroke-width="0.75" stroke-miterlimit="10" stroke-linecap="round" stroke-linejoin="round"/>
<path d="M287.705 405.517C287.705 414.217 251.405 421.217 206.605 421.217C161.805 421.217 125.505 414.217 125.505 405.517C125.505 396.817 161.805 389.817 206.605 389.817C251.305 389.717 287.705 396.817 287.705 405.517Z" fill="#8EBF9B"/>
<g opacity="0.7">
<g opacity="0.7">
<path opacity="0.7" d="M287.705 405.517C287.705 414.217 251.405 421.217 206.605 421.217C161.805 421.217 125.505 414.217 125.505 405.517C125.505 396.817 161.805 389.817 206.605 389.817C251.305 389.717 287.705 396.817 287.705 405.517Z" fill="white"/>
</g>
</g>
<path d="M2.30469 381.617H452.205" stroke="#263238" stroke-miterlimit="10" stroke-linecap="round" stroke-linejoin="round"/>
<path d="M190.104 135.818L189.704 127.518C189.704 127.518 178.404 120.418 177.604 111.318C177.604 111.318 171.604 97.4176 190.304 91.7176C205.204 87.2176 204.304 85.0176 204.304 85.0176C204.304 85.0176 207.504 87.1176 204.504 91.0176C204.504 91.0176 209.804 91.6176 211.904 89.7176C211.904 89.7176 210.904 94.1176 206.204 94.5176C206.204 94.5176 210.004 98.2176 213.204 97.0176C213.204 97.0176 212.004 99.9176 207.304 98.3176C207.304 98.3176 211.704 101.718 213.204 106.318L214.004 109.918L217.904 112.518C218.704 113.118 218.904 114.218 218.304 115.018L216.704 117.118L217.304 120.318L216.704 121.118L218.204 122.218L218.804 125.218C218.804 125.218 220.104 128.618 218.904 130.318C217.704 132.018 211.804 132.318 211.804 132.318L211.204 139.518L190.104 135.818Z" fill="white"/>
<path d="M190.104 135.818L189.704 127.518C189.704 127.518 178.404 120.418 177.604 111.318C177.604 111.318 171.604 97.4176 190.304 91.7176C205.204 87.2176 204.304 85.0176 204.304 85.0176C204.304 85.0176 207.504 87.1176 204.504 91.0176C204.504 91.0176 209.804 91.6176 211.904 89.7176C211.904 89.7176 210.904 94.1176 206.204 94.5176C206.204 94.5176 210.004 98.2176 213.204 97.0176C213.204 97.0176 212.004 99.9176 207.304 98.3176C207.304 98.3176 211.704 101.718 213.204 106.318L214.004 109.918L217.904 112.518C218.704 113.118 218.904 114.218 218.304 115.018L216.704 117.118L217.304 120.318L216.704 121.118L218.204 122.218L218.804 125.218C218.804 125.218 220.104 128.618 218.904 130.318C217.704 132.018 211.804 132.318 211.804 132.318L211.204 139.518L190.104 135.818Z" stroke="#263238" stroke-miterlimit="10" stroke-linecap="round" stroke-linejoin="round"/>
<path d="M193.904 126.918C193.804 123.218 198.204 120.218 198.204 120.218C198.204 120.218 196.004 120.718 194.204 117.818C192.304 114.918 192.604 110.218 196.604 110.718C200.604 111.318 200.904 115.018 200.904 115.018L204.104 113.118C202.504 111.218 202.904 108.718 203.904 105.818C204.904 102.918 203.004 102.618 203.504 100.818C203.904 99.5176 206.804 99.1176 208.104 98.9176C207.604 98.5176 207.404 98.3176 207.404 98.3176C212.104 99.8176 213.304 97.0176 213.304 97.0176C210.004 98.2176 206.304 94.5176 206.304 94.5176C211.004 94.1176 212.004 89.7176 212.004 89.7176C209.904 91.6176 204.604 91.0176 204.604 91.0176C207.504 87.2176 204.404 85.0176 204.404 85.0176C204.404 85.0176 205.204 87.2176 190.404 91.7176C171.804 97.4176 177.704 111.318 177.704 111.318C178.504 120.318 189.804 127.518 189.804 127.518C191.904 126.218 193.904 126.918 193.904 126.918Z" fill="#263238"/>
<path d="M193.904 126.918C193.804 123.218 198.204 120.218 198.204 120.218C198.204 120.218 196.004 120.718 194.204 117.818C192.304 114.918 192.604 110.218 196.604 110.718C200.604 111.318 200.904 115.018 200.904 115.018L204.104 113.118C202.504 111.218 202.904 108.718 203.904 105.818C204.904 102.918 203.004 102.618 203.504 100.818C203.904 99.5176 206.804 99.1176 208.104 98.9176C207.604 98.5176 207.404 98.3176 207.404 98.3176C212.104 99.8176 213.304 97.0176 213.304 97.0176C210.004 98.2176 206.304 94.5176 206.304 94.5176C211.004 94.1176 212.004 89.7176 212.004 89.7176C209.904 91.6176 204.604 91.0176 204.604 91.0176C207.504 87.2176 204.404 85.0176 204.404 85.0176C204.404 85.0176 205.204 87.2176 190.404 91.7176C171.804 97.4176 177.704 111.318 177.704 111.318C178.504 120.318 189.804 127.518 189.804 127.518C191.904 126.218 193.904 126.918 193.904 126.918Z" stroke="#263238" stroke-miterlimit="10" stroke-linecap="round" stroke-linejoin="round"/>
<path d="M211.804 106.318C211.804 106.318 209.804 106.318 209.104 109.918" stroke="#263238" stroke-miterlimit="10" stroke-linecap="round" stroke-linejoin="round"/>
<path d="M214.504 121.217C214.504 121.217 212.004 121.217 210.404 119.217" stroke="#263238" stroke-width="0.75" stroke-miterlimit="10" stroke-linecap="round" stroke-linejoin="round"/>
<path d="M199.305 121.418C199.805 133.218 211.805 132.218 211.805 132.218C211.805 132.218 216.005 132.018 218.105 130.918C200.405 132.318 199.305 121.418 199.305 121.418Z" fill="#263238"/>
<path d="M199.305 121.418C199.805 133.218 211.805 132.218 211.805 132.218C211.805 132.218 216.005 132.018 218.105 130.918C200.405 132.318 199.305 121.418 199.305 121.418Z" stroke="#263238" stroke-miterlimit="10" stroke-linecap="round" stroke-linejoin="round"/>
<path d="M212.804 110.717C213.104 111.417 213.104 112.117 212.704 112.317C212.304 112.517 211.704 112.117 211.404 111.417C211.104 110.717 211.104 110.017 211.504 109.817C211.904 109.617 212.504 110.017 212.804 110.717Z" fill="#263238"/>
<path d="M221.204 382.417L223.704 398.117C223.704 398.117 222.204 402.417 222.004 403.917C221.904 404.517 222.004 406.517 222.004 406.517C222.004 408.317 223.404 409.717 225.104 409.817C228.404 410.017 233.304 410.117 235.304 409.617C238.304 408.917 243.904 406.117 246.204 404.117C246.504 403.817 247.004 403.217 247.404 402.517C248.204 401.417 248.204 399.917 247.604 398.717C246.904 397.417 245.604 396.717 244.104 396.717L235.604 397.117L234.304 380.717L221.204 382.417Z" fill="#263238"/>
<path d="M221.204 382.417L223.704 398.117C223.704 398.117 222.204 402.417 222.004 403.917C221.904 404.517 222.004 406.517 222.004 406.517C222.004 408.317 223.404 409.717 225.104 409.817C228.404 410.017 233.304 410.117 235.304 409.617C238.304 408.917 243.904 406.117 246.204 404.117C246.504 403.817 247.004 403.217 247.404 402.517C248.204 401.417 248.204 399.917 247.604 398.717C246.904 397.417 245.604 396.717 244.104 396.717L235.604 397.117L234.304 380.717L221.204 382.417Z" stroke="#263238" stroke-miterlimit="10" stroke-linecap="round" stroke-linejoin="round"/>
<path d="M170.605 381.918L168.305 396.018C168.305 396.018 169.605 399.918 169.805 401.218C169.905 401.818 169.805 403.618 169.805 403.618C169.805 405.218 168.605 406.518 167.005 406.618C164.105 406.718 159.705 406.918 157.805 406.418C155.105 405.818 150.105 403.218 148.005 401.418C147.705 401.118 147.305 400.618 146.905 400.018C146.205 399.018 146.105 397.718 146.705 396.618C147.305 395.518 148.505 394.818 149.805 394.818L157.505 395.218L158.605 380.418L170.605 381.918Z" fill="#263238"/>
<path d="M170.605 381.918L168.305 396.018C168.305 396.018 169.605 399.918 169.805 401.218C169.905 401.818 169.805 403.618 169.805 403.618C169.805 405.218 168.605 406.518 167.005 406.618C164.105 406.718 159.705 406.918 157.805 406.418C155.105 405.818 150.105 403.218 148.005 401.418C147.705 401.118 147.305 400.618 146.905 400.018C146.205 399.018 146.105 397.718 146.705 396.618C147.305 395.518 148.505 394.818 149.805 394.818L157.505 395.218L158.605 380.418L170.605 381.918Z" stroke="#263238" stroke-miterlimit="10" stroke-linecap="round" stroke-linejoin="round"/>
<path d="M167.704 235.818C167.704 235.818 167.204 245.418 166.504 261.618C166.004 273.718 162.504 311.218 161.504 323.918C160.204 340.718 156.104 390.818 156.104 390.818C156.104 390.818 161.504 395.418 169.904 392.718C169.904 392.718 180.104 343.418 183.004 326.718C185.004 315.018 189.804 279.818 193.404 268.518C194.604 264.818 199.904 254.518 199.904 254.518V235.918H167.704V235.818Z" fill="#8EBF9B"/>
<g opacity="0.2">
<g opacity="0.2">
<path opacity="0.2" d="M163.305 240.318C163.305 240.318 176.205 248.118 187.505 247.518C187.505 247.518 191.805 257.918 188.905 273.718C186.005 289.618 178.105 328.218 178.105 328.218C178.105 328.218 171.305 385.518 168.105 385.118C164.905 384.718 155.305 382.318 155.305 382.318L156.205 390.818L168.405 392.918L175.505 389.818L191.905 337.818L195.105 296.418L200.605 262.018L196.105 238.718L172.605 232.518H163.905L163.305 240.318Z" fill="#070809"/>
</g>
</g>
<path d="M167.704 235.818C167.704 235.818 167.204 245.418 166.504 261.618C166.004 273.718 162.504 311.218 161.504 323.918C160.204 340.718 156.104 390.818 156.104 390.818C156.104 390.818 161.504 395.418 169.904 392.718C169.904 392.718 180.104 343.418 183.004 326.718C185.004 315.018 189.804 279.818 193.404 268.518C194.604 264.818 199.904 254.518 199.904 254.518V235.918H167.704V235.818Z" stroke="#263238" stroke-miterlimit="10" stroke-linecap="round" stroke-linejoin="round"/>
<path d="M179.404 257.018C182.104 258.918 186.104 260.818 191.804 261.918" stroke="#263238" stroke-miterlimit="10" stroke-linecap="round" stroke-linejoin="round"/>
<path d="M176.904 255.018C177.304 255.318 177.704 255.718 178.104 256.118" stroke="#263238" stroke-miterlimit="10" stroke-linecap="round" stroke-linejoin="round"/>
<path d="M175.404 329.318C173.804 331.118 171.004 332.318 166.604 330.118" stroke="#263238" stroke-miterlimit="10" stroke-linecap="round" stroke-linejoin="round"/>
<path d="M247.505 158.717C247.505 158.717 254.005 145.717 255.705 141.217C256.205 139.817 257.305 135.617 257.305 135.617C257.305 135.617 256.305 130.117 256.205 128.217C256.205 127.517 256.405 125.617 256.405 125.617L256.005 120.617C256.005 120.217 256.205 119.817 256.505 119.617C257.105 119.117 258.005 119.417 258.305 120.117L258.905 121.817C258.905 121.817 260.005 124.617 260.805 125.117C261.605 125.617 263.505 125.117 264.405 124.917C265.805 124.517 268.205 122.917 269.405 122.217C270.305 121.617 272.705 119.717 272.705 119.717C272.705 119.717 273.005 121.217 272.905 121.717C272.705 122.517 270.805 124.317 270.805 124.317C270.805 124.317 271.105 125.817 271.005 126.317C270.805 127.017 269.105 128.317 269.105 128.317C269.105 128.317 269.205 130.417 268.905 131.117C268.205 132.917 264.005 136.817 264.005 136.817C264.005 136.817 262.605 142.217 262.405 144.117C261.605 150.617 262.205 160.317 255.105 169.217L248.205 164.817L247.505 158.717Z" fill="white"/>
<path d="M247.505 158.717C247.505 158.717 254.005 145.717 255.705 141.217C256.205 139.817 257.305 135.617 257.305 135.617C257.305 135.617 256.305 130.117 256.205 128.217C256.205 127.517 256.405 125.617 256.405 125.617L256.005 120.617C256.005 120.217 256.205 119.817 256.505 119.617C257.105 119.117 258.005 119.417 258.305 120.117L258.905 121.817C258.905 121.817 260.005 124.617 260.805 125.117C261.605 125.617 263.505 125.117 264.405 124.917C265.805 124.517 268.205 122.917 269.405 122.217C270.305 121.617 272.705 119.717 272.705 119.717C272.705 119.717 273.005 121.217 272.905 121.717C272.705 122.517 270.805 124.317 270.805 124.317C270.805 124.317 271.105 125.817 271.005 126.317C270.805 127.017 269.105 128.317 269.105 128.317C269.105 128.317 269.205 130.417 268.905 131.117C268.205 132.917 264.005 136.817 264.005 136.817C264.005 136.817 262.605 142.217 262.405 144.117C261.605 150.617 262.205 160.317 255.105 169.217L248.205 164.817L247.505 158.717Z" stroke="#263238" stroke-miterlimit="10" stroke-linecap="round" stroke-linejoin="round"/>
<path d="M244.904 153.317C244.904 153.317 259.204 150.517 258.004 162.517C256.804 174.217 252.004 171.017 252.004 171.017C252.004 171.017 245.504 173.817 244.904 170.217C244.304 166.617 244.904 153.317 244.904 153.317Z" fill="#757575"/>
<path d="M244.904 153.317C244.904 153.317 259.204 150.517 258.004 162.517C256.804 174.217 252.004 171.017 252.004 171.017C252.004 171.017 245.504 173.817 244.904 170.217C244.304 166.617 244.904 153.317 244.904 153.317Z" stroke="#263238" stroke-miterlimit="10" stroke-linecap="round" stroke-linejoin="round"/>
<path d="M186.305 139.417L188.805 133.917C188.805 133.917 195.305 133.017 200.805 132.917C206.305 132.817 211.805 134.317 211.805 134.317L214.505 140.517L186.305 139.417Z" fill="#757575"/>
<path d="M186.305 139.417L188.805 133.917C188.805 133.917 195.305 133.017 200.805 132.917C206.305 132.817 211.805 134.317 211.805 134.317L214.505 140.517L186.305 139.417Z" stroke="#263238" stroke-miterlimit="10" stroke-linecap="round" stroke-linejoin="round"/>
<path d="M193.104 235.818H225.004L227.104 257.718C227.104 257.718 230.404 300.418 231.504 314.618C233.004 334.818 236.504 395.718 236.504 395.718L221.904 396.918C221.904 396.918 211.704 336.318 207.604 316.318C205.104 303.218 196.604 264.218 196.604 264.218C196.604 264.218 188.904 253.118 193.104 235.818Z" fill="#8EBF9B"/>
<g opacity="0.2">
<g opacity="0.2">
<path opacity="0.2" d="M196.605 264.217C196.605 264.217 197.205 265.117 202.805 264.217C208.405 263.317 207.405 283.117 209.305 299.417C211.205 315.717 218.105 324.917 218.105 324.917C218.105 324.917 216.505 335.517 218.105 352.417C219.705 369.317 221.305 388.717 224.705 388.517C228.205 388.317 237.805 386.817 237.805 386.817L244.105 390.317L237.805 402.917L215.905 398.717L209.005 388.317L198.805 314.417L193.405 279.817L194.905 271.517L196.605 264.217Z" fill="#070809"/>
</g>
</g>
<path d="M193.105 235.816H225.005L227.105 257.716C227.105 257.716 230.405 300.416 231.505 314.616C233.005 334.816 236.505 395.716 236.505 395.716L221.905 396.916C221.905 396.916 211.705 336.316 207.605 316.316C205.105 303.216 196.605 264.216 196.605 264.216C196.605 264.216 188.905 253.116 193.105 235.816Z" stroke="#263238" stroke-miterlimit="10" stroke-linecap="round" stroke-linejoin="round"/>
<path d="M165.405 237.717C165.405 237.717 187.905 250.817 228.105 240.817L225.805 202.717C225.805 202.717 234.105 172.517 233.705 150.917C233.605 145.517 229.205 141.717 223.805 140.917C218.505 140.117 208.305 137.917 203.005 137.717C197.105 137.417 185.305 138.917 179.405 139.317C173.805 139.717 169.005 143.517 168.805 149.117C168.505 158.017 168.605 173.117 171.205 196.017L165.405 237.717Z" fill="#263238"/>
<path d="M165.405 237.717C165.405 237.717 187.905 250.817 228.105 240.817L225.805 202.717C225.805 202.717 234.105 172.517 233.705 150.917C233.605 145.517 229.205 141.717 223.805 140.917C218.505 140.117 208.305 137.917 203.005 137.717C197.105 137.417 185.305 138.917 179.405 139.317C173.805 139.717 169.005 143.517 168.805 149.117C168.505 158.017 168.605 173.117 171.205 196.017L165.405 237.717Z" stroke="#263238" stroke-miterlimit="10" stroke-linecap="round" stroke-linejoin="round"/>
<path d="M176.905 139.418C176.905 139.418 165.705 140.318 164.005 148.918C162.305 157.618 158.505 188.118 158.505 188.118L156.205 192.918L168.305 202.518C168.305 202.518 173.005 196.318 173.805 193.818C176.805 184.918 176.905 139.418 176.905 139.418Z" fill="#263238"/>
<path d="M176.905 139.418C176.905 139.418 165.705 140.318 164.005 148.918C162.305 157.618 158.505 188.118 158.505 188.118L156.205 192.918L168.305 202.518C168.305 202.518 173.005 196.318 173.805 193.818C176.805 184.918 176.905 139.418 176.905 139.418Z" stroke="#263238" stroke-miterlimit="10" stroke-linecap="round" stroke-linejoin="round"/>
<path d="M168.305 202.617C168.305 202.617 165.405 208.417 159.405 212.617C153.305 216.817 142.205 218.717 142.205 218.717C142.205 218.717 140.905 220.017 140.305 220.317C138.805 220.917 135.505 221.417 134.005 221.017C133.105 220.817 131.605 219.417 131.305 218.517C131.105 218.017 131.305 217.017 131.305 216.517C131.205 215.317 130.305 213.017 130.405 211.817C130.505 211.217 131.305 210.117 131.405 209.417C131.505 208.717 130.905 207.117 131.405 206.717C131.905 206.217 133.405 206.617 134.005 206.717C134.505 206.817 136.005 207.317 136.005 207.317L138.705 206.717C138.705 206.717 139.005 205.417 139.405 205.317C140.105 205.117 141.705 206.717 141.705 206.717L142.305 208.117C142.305 208.117 151.205 203.217 156.105 195.617L168.305 202.617Z" fill="white"/>
<path d="M168.305 202.617C168.305 202.617 165.405 208.417 159.405 212.617C153.305 216.817 142.205 218.717 142.205 218.717C142.205 218.717 140.905 220.017 140.305 220.317C138.805 220.917 135.505 221.417 134.005 221.017C133.105 220.817 131.605 219.417 131.305 218.517C131.105 218.017 131.305 217.017 131.305 216.517C131.205 215.317 130.305 213.017 130.405 211.817C130.505 211.217 131.305 210.117 131.405 209.417C131.505 208.717 130.905 207.117 131.405 206.717C131.905 206.217 133.405 206.617 134.005 206.717C134.505 206.817 136.005 207.317 136.005 207.317L138.705 206.717C138.705 206.717 139.005 205.417 139.405 205.317C140.105 205.117 141.705 206.717 141.705 206.717L142.305 208.117C142.305 208.117 151.205 203.217 156.105 195.617L168.305 202.617Z" stroke="#263238" stroke-miterlimit="10" stroke-linecap="round" stroke-linejoin="round"/>
<path d="M225.606 141.217C225.606 141.217 232.506 141.917 241.606 149.617L249.106 154.817C249.106 154.817 253.706 156.517 253.306 163.617C252.906 170.717 243.706 173.517 238.706 171.017C233.706 168.517 230.506 167.317 228.706 165.017C226.106 161.617 222.806 153.317 222.906 149.017C223.006 147.017 225.606 141.217 225.606 141.217Z" fill="#263238"/>
<path d="M225.606 141.217C225.606 141.217 232.506 141.917 241.606 149.617L249.106 154.817C249.106 154.817 253.706 156.517 253.306 163.617C252.906 170.717 243.706 173.517 238.706 171.017C233.706 168.517 230.506 167.317 228.706 165.017C226.106 161.617 222.806 153.317 222.906 149.017C223.006 147.017 225.606 141.217 225.606 141.217Z" stroke="#263238" stroke-miterlimit="10" stroke-linecap="round" stroke-linejoin="round"/>
<path d="M223.705 320.816C222.605 322.716 220.305 324.916 215.105 325.816" stroke="#263238" stroke-miterlimit="10" stroke-linecap="round" stroke-linejoin="round"/>
<path d="M212.806 211.917C213.306 211.817 213.906 211.617 214.506 211.217" stroke="#7F7F80" stroke-width="0.75" stroke-linecap="round" stroke-linejoin="round"/>
<path d="M200.405 155.018C200.405 155.018 202.505 205.318 210.805 211.318" stroke="#7F7F80" stroke-width="0.75" stroke-linecap="round" stroke-linejoin="round"/>
<path d="M193.205 219.218C199.305 220.618 206.605 220.318 214.505 216.518" stroke="#7F7F80" stroke-width="0.75" stroke-linecap="round" stroke-linejoin="round"/>
<path d="M173.806 208.316C173.806 208.316 180.406 215.516 190.706 218.616" stroke="#7F7F80" stroke-width="0.75" stroke-linecap="round" stroke-linejoin="round"/>
<path d="M157.705 190.018C157.705 190.018 162.905 196.018 171.205 201.018C171.205 201.018 170.805 202.418 170.505 202.818C170.105 203.318 168.805 203.618 168.405 204.118C168.105 204.518 168.205 205.818 167.905 206.118C167.605 206.418 166.105 206.718 166.105 206.718C166.105 206.718 158.505 202.318 153.405 196.018C153.405 196.018 153.705 194.218 154.105 193.718C154.305 193.418 155.205 193.318 155.405 192.918C155.705 192.418 155.405 191.018 155.805 190.618C156.105 190.218 157.705 190.018 157.705 190.018Z" fill="#757575"/>
<path d="M157.705 190.018C157.705 190.018 162.905 196.018 171.205 201.018C171.205 201.018 170.805 202.418 170.505 202.818C170.105 203.318 168.805 203.618 168.405 204.118C168.105 204.518 168.205 205.818 167.905 206.118C167.605 206.418 166.105 206.718 166.105 206.718C166.105 206.718 158.505 202.318 153.405 196.018C153.405 196.018 153.705 194.218 154.105 193.718C154.305 193.418 155.205 193.318 155.405 192.918C155.705 192.418 155.405 191.018 155.805 190.618C156.105 190.218 157.705 190.018 157.705 190.018Z" stroke="#263238" stroke-miterlimit="10" stroke-linecap="round" stroke-linejoin="round"/>
<path d="M171.905 188.816C172.005 189.616 172.105 190.316 172.105 191.116" stroke="#7F7F80" stroke-width="0.75" stroke-linecap="round" stroke-linejoin="round"/>
<path d="M170.205 157.816C170.205 165.016 170.605 174.416 171.805 186.416" stroke="#7F7F80" stroke-width="0.75" stroke-linecap="round" stroke-linejoin="round"/>
<path d="M170.305 149.018C170.205 150.818 170.205 152.718 170.205 155.018" stroke="#7F7F80" stroke-width="0.75" stroke-linecap="round" stroke-linejoin="round"/>
<path d="M222.905 156.617C224.305 159.717 227.005 163.417 231.605 167.417" stroke="#7F7F80" stroke-width="0.75" stroke-linecap="round" stroke-linejoin="round"/>
<path d="M155.305 385.117C155.305 385.117 162.705 387.917 172.405 388.417C172.405 388.417 172.705 389.917 172.605 390.317C172.505 390.917 171.505 391.817 171.405 392.417C171.305 392.917 172.005 393.917 171.905 394.517C171.805 394.917 170.605 395.817 170.605 395.817C170.605 395.817 161.905 395.517 154.405 392.417C154.405 392.417 153.805 390.617 153.905 390.017C154.005 389.617 154.605 389.117 154.705 388.717C154.805 388.117 153.805 387.017 154.005 386.517C154.105 386.017 155.305 385.117 155.305 385.117Z" fill="#8EBF9B"/>
<g opacity="0.5">
<g opacity="0.5">
<path opacity="0.5" d="M155.305 385.117C155.305 385.117 162.705 387.917 172.405 388.417C172.405 388.417 172.705 389.917 172.605 390.317C172.505 390.917 171.505 391.817 171.405 392.417C171.305 392.917 172.005 393.917 171.905 394.517C171.805 394.917 170.605 395.817 170.605 395.817C170.605 395.817 161.905 395.517 154.405 392.417C154.405 392.417 153.805 390.617 153.905 390.017C154.005 389.617 154.605 389.117 154.705 388.717C154.805 388.117 153.805 387.017 154.005 386.517C154.105 386.017 155.305 385.117 155.305 385.117Z" fill="white"/>
</g>
</g>
<path d="M155.305 385.117C155.305 385.117 162.705 387.917 172.405 388.417C172.405 388.417 172.705 389.917 172.605 390.317C172.505 390.917 171.505 391.817 171.405 392.417C171.305 392.917 172.005 393.917 171.905 394.517C171.805 394.917 170.605 395.817 170.605 395.817C170.605 395.817 161.905 395.517 154.405 392.417C154.405 392.417 153.805 390.617 153.905 390.017C154.005 389.617 154.605 389.117 154.705 388.717C154.805 388.117 153.805 387.017 154.005 386.517C154.105 386.017 155.305 385.117 155.305 385.117Z" stroke="#263238" stroke-miterlimit="10" stroke-linecap="round" stroke-linejoin="round"/>
<path d="M220.205 391.516C220.205 391.516 228.105 392.116 237.505 389.816C237.505 389.816 238.205 391.116 238.305 391.616C238.305 392.216 237.605 393.316 237.705 393.916C237.805 394.416 238.705 395.216 238.805 395.716C238.805 396.216 237.905 397.316 237.905 397.316C237.905 397.316 229.405 399.516 221.405 398.616C221.405 398.616 220.305 397.116 220.205 396.516C220.205 396.116 220.605 395.416 220.605 395.116C220.505 394.516 219.305 393.816 219.305 393.216C219.305 392.716 220.205 391.516 220.205 391.516Z" fill="#8EBF9B"/>
<g opacity="0.5">
<g opacity="0.5">
<path opacity="0.5" d="M220.205 391.516C220.205 391.516 228.105 392.116 237.505 389.816C237.505 389.816 238.205 391.116 238.305 391.616C238.305 392.216 237.605 393.316 237.705 393.916C237.805 394.416 238.705 395.216 238.805 395.716C238.805 396.216 237.905 397.316 237.905 397.316C237.905 397.316 229.405 399.516 221.405 398.616C221.405 398.616 220.305 397.116 220.205 396.516C220.205 396.116 220.605 395.416 220.605 395.116C220.505 394.516 219.305 393.816 219.305 393.216C219.305 392.716 220.205 391.516 220.205 391.516Z" fill="white"/>
</g>
</g>
<path d="M220.205 391.516C220.205 391.516 228.105 392.116 237.505 389.816C237.505 389.816 238.205 391.116 238.305 391.616C238.305 392.216 237.605 393.316 237.705 393.916C237.805 394.416 238.705 395.216 238.805 395.716C238.805 396.216 237.905 397.316 237.905 397.316C237.905 397.316 229.405 399.516 221.405 398.616C221.405 398.616 220.305 397.116 220.205 396.516C220.205 396.116 220.605 395.416 220.605 395.116C220.505 394.516 219.305 393.816 219.305 393.216C219.305 392.716 220.205 391.516 220.205 391.516Z" stroke="#263238" stroke-miterlimit="10" stroke-linecap="round" stroke-linejoin="round"/>
<path d="M219.404 244.518C219.404 244.518 219.104 257.518 224.504 257.718" stroke="#263238" stroke-miterlimit="10" stroke-linecap="round" stroke-linejoin="round"/>
<path d="M177.604 111.417C178.404 120.417 189.704 127.617 189.704 127.617C191.904 126.317 194.004 127.017 194.004 127.017C193.904 123.317 198.304 120.317 198.304 120.317C198.304 120.317 196.104 120.817 194.304 117.917C192.504 115.017 192.704 110.317 196.704 110.817C200.704 111.417 201.004 115.117 201.004 115.117L204.204 113.217C202.604 111.317 203.004 108.817 204.004 105.917C205.004 103.017 203.104 102.717 203.604 100.917C203.604 100.817 197.404 106.917 177.604 111.417Z" fill="#757575"/>
<path d="M177.604 111.417C178.404 120.417 189.704 127.617 189.704 127.617C191.904 126.317 194.004 127.017 194.004 127.017C193.904 123.317 198.304 120.317 198.304 120.317C198.304 120.317 196.104 120.817 194.304 117.917C192.504 115.017 192.704 110.317 196.704 110.817C200.704 111.417 201.004 115.117 201.004 115.117L204.204 113.217C202.604 111.317 203.004 108.817 204.004 105.917C205.004 103.017 203.104 102.717 203.604 100.917C203.604 100.817 197.404 106.917 177.604 111.417Z" stroke="#263238" stroke-miterlimit="10" stroke-linecap="round" stroke-linejoin="round"/>
</svg>
